<svg xmlns="http://www.w3.org/2000/svg" viewBox="0 0 1900 1050" enable-background="new 0 0 1900 1050"><path fill="#33353A" d="M0 0h1900v1050H0z"/><path stroke="#B35D3D" stroke-miterlimit="10" fill="none" d="M192.9 338l147.8-58.7M192.9 338l163.7 100.2"/><path stroke="#F18D1A" stroke-miterlimit="10" fill="none" d="M356.6 438.2l99.1-84.4M185.1 575.2L264.5 765m-79.4-189.8L338 552.6m-161.6 22.6L346 656m-5.3-376.7l16-36m-16 36l23.4 34.1"/><path stroke="#B35D3D" stroke-miterlimit="10" fill="none" d="M192.9 338l-15.8 234.4"/><circle fill="#B35D3D" cx="192.8" cy="335" r="116.5"/><circle stroke="#fff" stroke-width="2" stroke-miterlimit="10" stroke-dasharray="1.9984,4.9959" cx="192.9" cy="335" r="110.2" fill="none"/><text transform="translate(148.439 330.878)"><tspan x="0" y="0" fill="#fff" font-family="'TabletGothic-Light'" font-size="6.943">Maternal and Infant</tspan><tspan x="19.2" y="17.4" fill="#fff" font-family="'TabletGothic'" font-size="13.885" letter-spacing="1">58,794</tspan></text><circle fill="#FDC427" cx="356.7" cy="243.3" r="11.2"/><text transform="translate(302.669 243.557)"><tspan x="0" y="0" fill="#FDC427" font-family="'TabletGothic-Light'" font-size="4.628">Overlayd, and</tspan><tspan x="-9.3" y="5.6" fill="#FDC427" font-family="'TabletGothic-Light'" font-size="4.628">starved at Nurse</tspan><tspan x="29.5" y="11.1" fill="#FDC427" font-family="'TabletGothic-Light'" font-size="4.628">529</tspan></text><circle fill="#F18D1A" cx="340.7" cy="279.3" r="11.2"/><text transform="translate(356.651 280.793)"><tspan x="0" y="0" fill="#F18D1A" font-family="'TabletGothic-Light'" font-size="4.628">Neglect</tspan><tspan x="0" y="5.6" fill="#F18D1A" font-family="'TabletGothic-Light'" font-size="4.628">529</tspan></text><circle fill="#FDC427" cx="364.2" cy="313.5" r="4.7"/><text transform="translate(373.515 315.609)"><tspan x="0" y="0" fill="#FDC427" font-family="'TabletGothic-Light'" font-size="4.628">Blasted</tspan><tspan x="0" y="5.6" fill="#FDC427" font-family="'TabletGothic-Light'" font-size="4.628">99</tspan></text><circle fill="#FDC427" cx="346" cy="656" r="27.8"/><text transform="translate(326.886 650.868)"><tspan x="0" y="0" fill="#F5F5F5" font-family="'TabletGothic-Light'" font-size="6.943">Childbed</tspan><tspan x="-1.4" y="13.9" fill="#F5F5F5" font-family="'TabletGothic'" font-size="13.885" letter-spacing="1">3,364</tspan></text><circle fill="#FDC427" cx="338" cy="552.6" r="44.4"/><text transform="translate(318.266 542.407)"><tspan x="0" y="0" fill="#fff" font-family="'TabletGothic-Light'" font-size="6.943">Abortive,</tspan><tspan x="-8.9" y="10.4" fill="#fff" font-family="'TabletGothic-Light'" font-size="6.943">and Stillborn</tspan><tspan x="-.1" y="27.8" fill="#fff" font-family="'TabletGothic'" font-size="13.885" letter-spacing="1">8,559</tspan></text><circle fill="#FDC427" cx="455.7" cy="353.8" r="57.3"/><text transform="translate(419.447 350.251)"><tspan x="0" y="0" fill="#fff" font-family="'TabletGothic-Light'" font-size="6.943">Teeth, and Worms</tspan><tspan x="13.5" y="17.4" fill="#fff" font-family="'TabletGothic'" font-size="13.885" letter-spacing="1">14,236</tspan></text><circle fill="#FDC427" cx="265.4" cy="767" r="86"/><text transform="translate(215.781 765.025)"><tspan x="0" y="0" fill="#fff" font-family="'TabletGothic-Light'" font-size="6.943">Chrisomes, and Infants</tspan><tspan x="25.2" y="17.4" fill="#fff" font-family="'TabletGothic'" font-size="13.885" letter-spacing="1">32,106</tspan></text><circle fill="#F18D1A" cx="180" cy="572.8" r="100.7"/><text transform="translate(137.305 572.353)"><tspan x="0" y="0" fill="#fff" font-family="'TabletGothic-Light'" font-size="6.943">Stillborn and Baby</tspan><tspan x="15" y="17.4" fill="#fff" font-family="'TabletGothic'" font-size="13.885" letter-spacing="1">44,029</tspan></text><circle fill="#F18D1A" cx="356.6" cy="438.2" r="57.3"/><text transform="translate(313.697 435.583)"><tspan x="0" y="0" fill="#fff" font-family="'TabletGothic-Light'" font-size="6.943">Childhood Infection</tspan><tspan x="20.5" y="13.9" fill="#fff" font-family="'TabletGothic'" font-size="13.885" letter-spacing="1">14,236</tspan></text><path stroke="#B35D3D" stroke-miterlimit="10" fill="none" d="M563.4 717.8l36.2 39m-36.2-39l-76.2 78.6m76.2-78.6l-70.8-18.1"/><path stroke="#F18D1A" stroke-miterlimit="10" fill="none" d="M492.6 699.7l-50.8-40.8m157.8 97.9l7.3 23.6M490 797.3l-46.3-48.8m46.3 48.8l51 12.1m-51-12.1l-70.6 15m70.6-15l.1 55.8"/><circle fill="#B35D3D" cx="562.3" cy="716.6" r="34.7"/><text transform="translate(531.368 715.973)"><tspan x="0" y="0" fill="#fff" font-family="'TabletGothic-Light'" font-size="6.943">Natural World</tspan><tspan x="11.5" y="13.9" fill="#fff" font-family="'TabletGothic'" font-size="13.885" letter-spacing="1">5,262</tspan></text><circle fill="#FDC427" cx="541" cy="809.4" r="4.7"/><text transform="translate(550.031 811.038)"><tspan x="0" y="0" fill="#FDC427" font-family="'TabletGothic-Light'" font-size="4.628">Blasted</tspan><tspan x="0" y="5.6" fill="#FDC427" font-family="'TabletGothic-Light'" font-size="4.628">99</tspan></text><circle fill="#FDC427" cx="606.9" cy="780.4" r="1.2"/><text transform="translate(612.811 782.274)"><tspan x="0" y="0" fill="#FDC427" font-family="'TabletGothic-Light'" font-size="4.628">Wolf</tspan><tspan x="0" y="5.6" fill="#FDC427" font-family="'TabletGothic-Light'" font-size="4.628">8</tspan></text><circle fill="#FDC427" cx="443.7" cy="748.5" r="11.7"/><text transform="translate(459.949 750.625)"><tspan x="0" y="0" fill="#FDC427" font-family="'TabletGothic-Light'" font-size="4.628">Scurvy</tspan><tspan x="0" y="5.6" fill="#FDC427" font-family="'TabletGothic-Light'" font-size="4.628">593</tspan></text><circle fill="#FDC427" cx="490.1" cy="853.1" r="3.5"/><text transform="translate(498.337 855.174)"><tspan x="0" y="0" fill="#FDC427" font-family="'TabletGothic-Light'" font-size="4.628">Starved</tspan><tspan x="0" y="5.6" fill="#FDC427" font-family="'TabletGothic-Light'" font-size="4.628">51</tspan></text><circle fill="#FDC427" cx="442.5" cy="660.4" r="13.9"/><text transform="translate(406.175 661.698)"><tspan x="0" y="0" fill="#FDC427" font-family="'TabletGothic-Light'" font-size="4.628">Worms</tspan><tspan x="9.2" y="5.6" fill="#FDC427" font-family="'TabletGothic-Light'" font-size="4.628">830</tspan></text><circle fill="#F18D1A" cx="599.6" cy="756.8" r="1.2"/><text transform="translate(605.687 758.657)"><tspan x="0" y="0" fill="#F18D1A" font-family="'TabletGothic-Light'" font-size="4.628">Animals</tspan><tspan x="0" y="5.6" fill="#F18D1A" font-family="'TabletGothic-Light'" font-size="4.628">8</tspan></text><circle fill="#F18D1A" cx="492.6" cy="699.7" r="13.9"/><text transform="translate(448.247 701.115)"><tspan x="0" y="0" fill="#F18D1A" font-family="'TabletGothic-Light'" font-size="4.628">Parasites</tspan><tspan x="17.6" y="5.6" fill="#F18D1A" font-family="'TabletGothic-Light'" font-size="4.628">830</tspan></text><circle fill="#FDC427" cx="421.5" cy="812.3" r="29.3"/><text transform="translate(405.348 806.884)"><tspan x="0" y="0" fill="#fff" font-family="'TabletGothic-Light'" font-size="6.943">Rickets</tspan><tspan x="-3.3" y="13.9" fill="#fff" font-family="'TabletGothic'" font-size="13.885" letter-spacing="1">3,681</tspan></text><circle fill="#F18D1A" cx="490" cy="797.3" r="32"/><text transform="translate(461.061 795.395)"><tspan x="0" y="0" fill="#fff" font-family="'TabletGothic-Light'" font-size="6.943">Malnutrition</tspan><tspan x="9" y="13.9" fill="#fff" font-family="'TabletGothic'" font-size="13.885" letter-spacing="1">4,424</tspan></text><path stroke="#B35D3D" stroke-miterlimit="10" fill="none" d="M869.3 508.3L706.1 743.6m163.2-235.3l133.9-209.2M869.3 508.3l.2-213.3"/><path stroke="#F18D1A" stroke-miterlimit="10" fill="none" d="M869.3 508.3L628.4 322.5"/><path stroke="#B35D3D" stroke-miterlimit="10" fill="none" d="M869.3 508.3l-182.4-58.2m182.4 58.2L818.2 714m51.1-205.7L1029 395.4M869.3 508.3L1012 638.7M869.3 508.3l91 181.8m-91-181.8l276-67.6m-276 67.6L680.2 614.2"/><path stroke="#F18D1A" stroke-miterlimit="10" fill="none" d="M628.4 322.5l127 11.9m-127-11.9l120.1-27.4m-120.1 27.4l112.3-63.2m-112.3 63.2l-134.9-61.9m134.9 61.9L525.2 538.8m155 75.4l-10.6-39m10.6 39l-27.3 32.2m27.3-32.2l33.4 10.4M869.5 295l33.3-20.8M868.4 295l-49.7-41.2m186.3 48.8l135-27.4m-135 27.4l-70-83.8M819.7 716l69.5 72.8M1029 395.4l15.4-22.4M1012 638.6l25.1 51.8m-76.8-.3l7 24.1m-7-24.1l18.2-14M1145.3 439l141.6-108.8"/><circle fill="#FDC427" cx="652.9" cy="646.4" r="12.6"/><text transform="translate(669.044 649.07)"><tspan x="0" y="0" fill="#FDC427" font-family="'TabletGothic-Light'" font-size="4.628">Canker,</tspan><tspan x="0" y="5.6" fill="#FDC427" font-family="'TabletGothic-Light'" font-size="4.628">Sore-mouth</tspan><tspan x="0" y="11.1" fill="#FDC427" font-family="'TabletGothic-Light'" font-size="4.628">and Thrush</tspan><tspan x="0" y="16.7" fill="#FDC427" font-family="'TabletGothic-Light'" font-size="4.628">689</tspan></text><circle fill="#FDC427" cx="818.7" cy="253.8" r="20.6"/><text transform="translate(844.425 254.982)"><tspan x="0" y="0" fill="#FDC427" font-family="'TabletGothic-Light'" font-size="4.628">Purples, and spotted Fever</tspan><tspan x="0" y="5.6" fill="#FDC427" font-family="'TabletGothic-Light'" font-size="4.628">1,845</tspan></text><circle fill="#F18D1A" cx="1012" cy="638.7" r="11.2"/><text transform="translate(1027.307 640.528)"><tspan x="0" y="0" fill="#F18D1A" font-family="'TabletGothic-Light'" font-size="4.628">Tuberculosis</tspan><tspan x="0" y="5.6" fill="#F18D1A" font-family="'TabletGothic-Light'" font-size="4.628">537</tspan></text><circle fill="#F18D1A" cx="869.5" cy="295" r="20.6"/><text transform="translate(861.102 287.845)"><tspan x="0" y="0" fill="#F5F5F5" font-family="'TabletGothic-Light'" font-size="4.628">Other</tspan><tspan x="-4.8" y="6.9" fill="#F5F5F5" font-family="'TabletGothic-Light'" font-size="4.628">Bacterial</tspan><tspan x="-4.1" y="17.4" fill="#F5F5F5" font-family="'TabletGothic'" font-size="10.414" letter-spacing="1">1,851</tspan></text><circle fill="#F18D1A" cx="960.3" cy="690.1" r="3.7"/><text transform="translate(909.228 691.673)"><tspan x="0" y="0" fill="#F18D1A" font-family="'TabletGothic-Light'" font-size="4.628">Varicella virus</tspan><tspan x="37.6" y="5.6" fill="#F18D1A" font-family="'TabletGothic-Light'" font-size="4.628">59</tspan></text><circle fill="#FDC427" cx="493.5" cy="260.6" r="25"/><text transform="translate(472.57 254.945)"><tspan x="0" y="0" fill="#F5F5F5" font-family="'TabletGothic-Light'" font-size="4.628">Mother, Rising</tspan><tspan x="2.1" y="5.6" fill="#F5F5F5" font-family="'TabletGothic-Light'" font-size="4.628">of the Lights</tspan><tspan x="5.2" y="16" fill="#F5F5F5" font-family="'TabletGothic'" font-size="10.414" letter-spacing="1">2,700</tspan></text><circle fill="#FDC427" cx="935.5" cy="218.8" r="15.1"/><text transform="translate(955.233 221.035)"><tspan x="0" y="0" fill="#FDC427" font-family="'TabletGothic-Light'" font-size="4.628">Plague in the Guts</tspan><tspan x="0" y="5.6" fill="#FDC427" font-family="'TabletGothic-Light'" font-size="4.628">991</tspan></text><circle fill="#FDC427" cx="748.5" cy="295.1" r="7.4"/><text transform="translate(760.52 297.064)"><tspan x="0" y="0" fill="#FDC427" font-family="'TabletGothic-Light'" font-size="4.628">Tissick</tspan><tspan x="0" y="5.6" fill="#FDC427" font-family="'TabletGothic-Light'" font-size="4.628">242</tspan></text><circle fill="#F18D1A" cx="680.2" cy="614.2" r="17.4"/><text transform="translate(672.845 611.551)"><tspan x="0" y="0" fill="#F5F5F5" font-family="'TabletGothic-Light'" font-size="6.943">STD</tspan><tspan x="-6.8" y="10.4" fill="#F5F5F5" font-family="'TabletGothic'" font-size="10.414" letter-spacing="1">1,292</tspan></text><circle fill="#F18D1A" cx="1029" cy="395.4" r="4.7"/><text transform="translate(1038.627 397.559)"><tspan x="0" y="0" fill="#F18D1A" font-family="'TabletGothic-Light'" font-size="4.628">Tetanus</tspan><tspan x="0" y="5.6" fill="#F18D1A" font-family="'TabletGothic-Light'" font-size="4.628">95</tspan></text><circle fill="#FDC427" cx="978.5" cy="676" r=".7"/><text transform="translate(983.31 677.787)"><tspan x="0" y="0" fill="#FDC427" font-family="'TabletGothic-Light'" font-size="4.628">Shingles</tspan><tspan x="0" y="5.6" fill="#FDC427" font-family="'TabletGothic-Light'" font-size="4.628">2</tspan></text><circle fill="#FDC427" cx="740.7" cy="259.3" r="9.7"/><text transform="translate(755.273 260.692)"><tspan x="0" y="0" fill="#FDC427" font-family="'TabletGothic-Light'" font-size="4.628">Pleurisy</tspan><tspan x="0" y="5.6" fill="#FDC427" font-family="'TabletGothic-Light'" font-size="4.628">415</tspan></text><circle fill="#FDC427" cx="755.4" cy="334.4" r="11.7"/><text transform="translate(771.98 336.893)"><tspan x="0" y="0" fill="#FDC427" font-family="'TabletGothic-Light'" font-size="4.628">Cold, and Cough</tspan><tspan x="0" y="5.6" fill="#FDC427" font-family="'TabletGothic-Light'" font-size="4.628">598</tspan></text><circle fill="#FDC427" cx="902.8" cy="274.2" r="1.2"/><text transform="translate(908.701 275.755)"><tspan x="0" y="0" fill="#D7B875" font-family="'TabletGothic-Light'" font-size="4.628">Leprosy</tspan><tspan x="0" y="5.6" fill="#D7B875" font-family="'TabletGothic-Light'" font-size="4.628">6</tspan></text><circle fill="#FDC427" cx="1037.1" cy="690.1" r="11.2"/><text transform="translate(1053.313 691.991)"><tspan x="0" y="0" fill="#FDC427" font-family="'TabletGothic-Light'" font-size="4.628">King&amp;apos;s Evil</tspan><tspan x="0" y="5.6" fill="#FDC427" font-family="'TabletGothic-Light'" font-size="4.628">537</tspan></text><circle fill="#FDC427" cx="967.3" cy="714.2" r="3.7"/><text transform="translate(931.072 715.54)"><tspan x="0" y="0" fill="#FDC427" font-family="'TabletGothic-Light'" font-size="4.628">Swine-Pox</tspan><tspan x="22.7" y="5.6" fill="#FDC427" font-family="'TabletGothic-Light'" font-size="4.628">57</tspan></text><circle fill="#FDC427" cx="1044.4" cy="373" r="4.7"/><text transform="translate(1054.032 375.539)"><tspan x="0" y="0" fill="#FDC427" font-family="'TabletGothic-Light'" font-size="4.628">Jaw-faln</tspan><tspan x="0" y="5.6" fill="#FDC427" font-family="'TabletGothic-Light'" font-size="4.628">95</tspan></text><circle fill="#FDC427" cx="713.5" cy="623.5" r="9.4"/><text transform="translate(727.493 625.133)"><tspan x="0" y="0" fill="#FDC427" font-family="'TabletGothic-Light'" font-size="4.628">French-Pox</tspan><tspan x="0" y="5.6" fill="#FDC427" font-family="'TabletGothic-Light'" font-size="4.628">392</tspan></text><circle fill="#F18D1A" cx="686.9" cy="450.1" r="13.1"/><text transform="translate(646.648 450.998)"><tspan x="0" y="0" fill="#F18D1A" font-family="'TabletGothic-Light'" font-size="4.628">Measles</tspan><tspan x="14.3" y="5.6" fill="#F18D1A" font-family="'TabletGothic-Light'" font-size="4.628">757</tspan></text><circle fill="#B35D3D" cx="870.5" cy="503.1" r="161.1"/><circle stroke="#fff" stroke-width="2" stroke-miterlimit="10" stroke-dasharray="1.9949,4.9872" cx="870.5" cy="503.1" r="155.6" fill="none"/><text transform="translate(828.666 505.311)"><tspan x="0" y="0" fill="#fff" font-family="'TabletGothic-Light'" font-size="6.943">Infectious Diseases</tspan><tspan x="15.5" y="17.4" fill="#fff" font-family="'TabletGothic'" font-size="13.885" letter-spacing="1">112,626</tspan></text><path stroke="#fff" stroke-miterlimit="10" fill="none" d="M828 508.5h84"/><circle fill="#F18D1A" cx="628.4" cy="322.5" r="105.6"/><text transform="translate(603.547 319.047)"><tspan x="0" y="0" fill="#fff" font-family="'TabletGothic-Light'" font-size="6.943">Respiratory</tspan><tspan x=".9" y="17.4" fill="#fff" font-family="'TabletGothic'" font-size="13.885" letter-spacing="1">48,442</tspan></text><path stroke="#fff" stroke-miterlimit="10" fill="none" d="M604 322.5h49m-504 12h86"/><path fill="#F18D1A" d="M758.3 743.6c0 27.2-25 49.3-52.2 49.3-27.2 0-49.3-22.1-49.3-49.3 0-27.2 22.1-49.3 49.3-49.3 27.2-.1 52.2 22 52.2 49.3z"/><text transform="translate(672.181 743.524)"><tspan x="0" y="0" fill="#fff" font-family="'TabletGothic-Light'" font-size="6.943">Flox &amp; Smallpox</tspan><tspan x="10.4" y="17.4" fill="#fff" font-family="'TabletGothic'" font-size="13.885" letter-spacing="1">10,576</tspan></text><path stroke="#fff" stroke-miterlimit="10" fill="none" d="M673 746.5h66"/><circle fill="#FDC427" cx="525.2" cy="531.1" r="101.4"/><text transform="translate(473.114 533.489)"><tspan x="0" y="0" fill="#fff" font-family="'TabletGothic-Light'" font-size="6.943">Consumption, and Cough</tspan><tspan x="27.9" y="17.4" fill="#fff" font-family="'TabletGothic'" font-size="13.885" letter-spacing="1">44,487</tspan></text><path stroke="#fff" stroke-miterlimit="10" fill="none" d="M474 536.5h103"/><circle fill="#FDC427" cx="1283.9" cy="325.6" r="74.1"/><text transform="translate(1251.397 325.312)"><tspan x="0" y="0" fill="#fff" font-family="'TabletGothic-Light'" font-size="6.943">Ague, and Fever</tspan><tspan x="8.4" y="17.4" fill="#fff" font-family="'TabletGothic'" font-size="13.885" letter-spacing="1">23,784</tspan></text><path stroke="#fff" stroke-miterlimit="10" fill="none" d="M1252 328.5h64"/><circle fill="#F18D1A" cx="1003.2" cy="299.1" r="63.2"/><text transform="translate(988.362 299.329)"><tspan x="0" y="0" fill="#fff" font-family="'TabletGothic-Light'" font-size="6.943">Plague</tspan><tspan x="-7.2" y="17.4" fill="#fff" font-family="'TabletGothic'" font-size="13.885" letter-spacing="1">17,375</tspan></text><path stroke="#fff" stroke-miterlimit="10" fill="none" d="M982 302.5h40"/><circle fill="#FDC427" cx="1140" cy="276.1" r="61.5"/><text transform="translate(1124.66 270.99)"><tspan x="0" y="0" fill="#fff" font-family="'TabletGothic-Light'" font-size="6.943">Plague</tspan><tspan x="-8.9" y="17.4" fill="#fff" font-family="'TabletGothic'" font-size="13.885" letter-spacing="1">16,384</tspan></text><path stroke="#fff" stroke-miterlimit="10" fill="none" d="M1116 274.5h47"/><circle fill="#FDC427" cx="889.2" cy="788.8" r="42.6"/><text transform="translate(862.498 782.897)"><tspan x="0" y="0" fill="#fff" font-family="'TabletGothic-Light'" font-size="6.943">Bloudy Flux,</tspan><tspan x="-12.5" y="8.1" fill="#fff" font-family="'TabletGothic-Light'" font-size="6.943">Scouring, and Flux</tspan><tspan x="7.1" y="25.5" fill="#fff" font-family="'TabletGothic'" font-size="13.885" letter-spacing="1">7,858</tspan></text><path stroke="#fff" stroke-miterlimit="10" fill="none" d="M850 794.5h78"/><circle fill="#F28C26" cx="1145.8" cy="435.7" r="74.1"/><text transform="translate(1128.835 432.971)"><tspan x="0" y="0" fill="#fff" font-family="'TabletGothic-Light'" font-size="6.943">Malaria</tspan><tspan x="-7.3" y="17.4" fill="#fff" font-family="'TabletGothic'" font-size="13.885" letter-spacing="1">23,784</tspan></text><path stroke="#fff" stroke-miterlimit="10" fill="none" d="M1123 436.5h45"/><circle fill="#F28C26" cx="818.2" cy="714" r="42.6"/><text transform="translate(790.017 706.801)"><tspan x="0" y="0" fill="#fff" font-family="'TabletGothic-Light'" font-size="6.943">Dysentry and</tspan><tspan x="9.9" y="8.1" fill="#fff" font-family="'TabletGothic-Light'" font-size="6.943">diarrhea</tspan><tspan x="8.8" y="25.5" fill="#fff" font-family="'TabletGothic'" font-size="13.885" letter-spacing="1">7,858</tspan></text><path stroke="#fff" stroke-miterlimit="10" fill="none" d="M791 718.5h53"/><text transform="translate(638.663 576.771)"><tspan x="0" y="0" fill="#FDC427" font-family="'TabletGothic-Light'" font-size="4.628">Thrush</tspan><tspan x="13.5" y="5.6" fill="#FDC427" font-family="'TabletGothic-Light'" font-size="4.628">211</tspan></text><circle fill="#FDC427" cx="669.6" cy="575.2" r="6.9"/><path stroke="#B35D3D" stroke-miterlimit="10" fill="none" d="M1220.4 536.4l66.2 20.3m-66.2-20.3l-.9 160.1"/><path stroke="#F18D1A" stroke-miterlimit="10" fill="none" d="M1220.4 536.4l-71.7 36.8m137.9-16.5l29.6-30.9m-29.6 30.9l37-1m-37 1l18.3 28.2m-156.2-13.5l-13.4-30.3m13.4 30.3l-25.3 31.8m96.1 93.3l39.7 58.8m-39.7-58.8l-34.9 60.9m34.9-60.9l-56.3 40.6m56.3-40.6l-47.2 19m47.2-19l-57.2-10m57.2 10l-40.2-43.9m40.2 43.9l-8.5 59.7m8.5-59.7l-35.8-90m37.5 90l27.8-57m-27.8 57l58.6-27.8m-58.6 27.8l51.5-4.3m-51.5 4.3l73 15m-73-15l47.9 35.8"/><circle fill="#B35D3D" cx="1220.5" cy="536.3" r="29.7"/><path stroke="#fff" stroke-miterlimit="10" fill="none" d="M1200 535.5h40"/><text transform="translate(1200.494 532.173)"><tspan x="0" y="0" fill="#fff" font-family="'TabletGothic-Light'" font-size="6.943">Humanity</tspan><tspan x="1.8" y="17.4" fill="#fff" font-family="'TabletGothic'" font-size="13.885" letter-spacing="1">3834</tspan></text><circle stroke="#fff" stroke-width="2" stroke-miterlimit="10" stroke-dasharray="1.9626,4.9065" cx="1220.4" cy="536.4" r="26.2" fill="none"/><circle fill="#FDC427" cx="1183.3" cy="607.5" r="2"/><text transform="translate(1190.322 609.49)"><tspan x="0" y="0" fill="#FDC427" font-family="'TabletGothic-Light'" font-size="4.628">Bleach</tspan><tspan x="0" y="5.6" fill="#FDC427" font-family="'TabletGothic-Light'" font-size="4.628">15</tspan></text><circle fill="#FDC427" cx="1163.2" cy="737.1" r="5.5"/><text transform="translate(1100.085 737.89)"><tspan x="0" y="0" fill="#FDC427" font-family="'TabletGothic-Light'" font-size="4.628">Burnt, and Scalded</tspan><tspan x="45.9" y="5.6" fill="#FDC427" font-family="'TabletGothic-Light'" font-size="4.628">125</tspan></text><circle fill="#FDC427" cx="1211" cy="756.2" r="6.7"/><text transform="translate(1222.223 758.044)"><tspan x="0" y="0" fill="#FDC427" font-family="'TabletGothic-Light'" font-size="4.628">Rupture</tspan><tspan x="0" y="5.6" fill="#FDC427" font-family="'TabletGothic-Light'" font-size="4.628">201</tspan></text><circle fill="#FDC427" cx="1295" cy="711.6" r="1.7"/><text transform="translate(1301.482 713.565)"><tspan x="0" y="0" fill="#FDC427" font-family="'TabletGothic-Light'" font-size="4.628">Poysoned</tspan><tspan x="0" y="5.6" fill="#FDC427" font-family="'TabletGothic-Light'" font-size="4.628">14</tspan></text><circle fill="#FDC427" cx="1184.6" cy="757.4" r="4"/><text transform="translate(1151.349 758.537)"><tspan x="0" y="0" fill="#FDC427" font-family="'TabletGothic-Light'" font-size="4.628">Lethargy</tspan><tspan x="19.7" y="5.6" fill="#FDC427" font-family="'TabletGothic-Light'" font-size="4.628">67</tspan></text><circle fill="#FDC427" cx="1272.7" cy="692.2" r="1"/><text transform="translate(1278.279 693.815)"><tspan x="0" y="0" fill="#FDC427" font-family="'TabletGothic-Light'" font-size="4.628">Scal&amp;apos;d-head</tspan><tspan x="0" y="5.6" fill="#FDC427" font-family="'TabletGothic-Light'" font-size="4.628">5</tspan></text><circle fill="#FDC427" cx="1162.3" cy="686.5" r="15.4"/><text transform="translate(1097.789 686.548)"><tspan x="0" y="0" fill="#FDC427" font-family="'TabletGothic-Light'" font-size="4.628">Killed by severa</tspan><tspan x="15.6" y="5.6" fill="#FDC427" font-family="'TabletGothic-Light'" font-size="4.628">Accidents</tspan><tspan x="33.8" y="11.1" fill="#FDC427" font-family="'TabletGothic-Light'" font-size="4.628">1,021</tspan></text><circle fill="#F18D1A" cx="1286.6" cy="556.7" r="12.6"/><text transform="translate(1276.439 556.907)"><tspan x="0" y="0" fill="#F5F5F5" font-family="'TabletGothic-Light'" font-size="4.628">Murder</tspan><tspan x="5.8" y="5.6" fill="#F5F5F5" font-family="'TabletGothic'" font-size="4.628">692</tspan></text><circle fill="#F18D1A" cx="1148.7" cy="571.4" r="7.9"/><text transform="translate(1114.955 569.815)"><tspan x="0" y="0" fill="#F18D1A" font-family="'TabletGothic-Light'" font-size="4.628">Neglect</tspan><tspan x="13" y="5.6" fill="#F18D1A" font-family="'TabletGothic-Light'" font-size="4.628">269</tspan></text><circle fill="#F18D1A" cx="1221.6" cy="696.5" r="26"/><text transform="translate(1200.357 695.358)"><tspan x="0" y="0" fill="#F5F5F5" font-family="'TabletGothic-Light'" font-size="6.943">Accidents</tspan><tspan x="6.5" y="10.4" fill="#F5F5F5" font-family="'TabletGothic'" font-size="10.414" letter-spacing="1">2,873</tspan></text><circle fill="#FDC427" cx="1260.6" cy="755.3" r="13.9"/><text transform="translate(1279.184 757.49)"><tspan x="0" y="0" fill="#FDC427" font-family="'TabletGothic-Light'" font-size="4.628">Drowned</tspan><tspan x="0" y="5.6" fill="#FDC427" font-family="'TabletGothic-Light'" font-size="4.628">827</tspan></text><circle fill="#FDC427" cx="1304.9" cy="584.9" r="4.5"/><text transform="translate(1314.164 586.84)"><tspan x="0" y="0" fill="#FDC427" font-family="'TabletGothic-Light'" font-size="4.628">Murdered</tspan><tspan x="0" y="5.6" fill="#FDC427" font-family="'TabletGothic-Light'" font-size="4.628">86</tspan></text><circle fill="#FDC427" cx="1316.2" cy="525.8" r="9.4"/><text transform="translate(1330.547 527.736)"><tspan x="0" y="0" fill="#FDC427" font-family="'TabletGothic-Light'" font-size="4.628">Executed</tspan><tspan x="0" y="5.6" fill="#FDC427" font-family="'TabletGothic-Light'" font-size="4.628">384</tspan></text><circle fill="#FDC427" cx="1279.3" cy="669.8" r="4"/><text transform="translate(1288.178 671.937)"><tspan x="0" y="0" fill="#FDC427" font-family="'TabletGothic-Light'" font-size="4.628">Bleeding</tspan><tspan x="0" y="5.6" fill="#FDC427" font-family="'TabletGothic-Light'" font-size="4.628">65</tspan></text><circle fill="#FDC427" cx="1179.3" cy="652.6" r=".5"/><text transform="translate(1132.024 653.884)"><tspan x="0" y="0" fill="#FDC427" font-family="'TabletGothic-Light'" font-size="4.628">Fainted in Bath</tspan><tspan x="41" y="5.6" fill="#FDC427" font-family="'TabletGothic-Light'" font-size="4.628">1</tspan></text><circle fill="#FDC427" cx="1135.8" cy="540.9" r="2.5"/><text transform="translate(1066.575 541.57)"><tspan x="0" y="0" fill="#FDC427" font-family="'TabletGothic-Light'" font-size="4.628">Smothered,and stifled</tspan><tspan x="57.4" y="5.6" fill="#FDC427" font-family="'TabletGothic-Light'" font-size="4.628">26</tspan></text><circle fill="#FDC427" cx="1323.6" cy="555.7" r="7.2"/><text transform="translate(1333.725 556.868)"><tspan x="0" y="0" fill="#FDC427" font-family="'TabletGothic-Light'" font-size="4.628">Hanged, and</tspan><tspan x="0" y="5.6" fill="#FDC427" font-family="'TabletGothic-Light'" font-size="4.628">made-away themselves</tspan><tspan x="0" y="11.1" fill="#FDC427" font-family="'TabletGothic-Light'" font-size="4.628">222</tspan></text><circle fill="#FDC427" cx="1124.1" cy="601.2" r="7.4"/><text transform="translate(1080.259 601.627)"><tspan x="0" y="0" fill="#FDC427" font-family="'TabletGothic-Light'" font-size="4.628">Found dead</tspan><tspan x="-7.6" y="5.6" fill="#FDC427" font-family="'TabletGothic-Light'" font-size="4.628">in the Streets</tspan><tspan x="22.9" y="11.1" fill="#FDC427" font-family="'TabletGothic-Light'" font-size="4.628">243</tspan></text><circle fill="#FDC427" cx="1172.3" cy="715.5" r="2.5"/><text transform="translate(1131.771 716.489)"><tspan x="0" y="0" fill="#FDC427" font-family="'TabletGothic-Light'" font-size="4.628">Shot (limbs)</tspan><tspan x="28.3" y="5.6" fill="#FDC427" font-family="'TabletGothic-Light'" font-size="4.628">27</tspan></text><circle fill="#FDC427" cx="1249" cy="639.5" r="10.7"/><text transform="translate(1262.51 637.547)"><tspan x="0" y="0" fill="#FDC427" font-family="'TabletGothic-Light'" font-size="4.628">Sores, Ulcers,</tspan><tspan x="0" y="5.6" fill="#FDC427" font-family="'TabletGothic-Light'" font-size="4.628">broken and bruised</tspan><tspan x="0" y="11.1" fill="#FDC427" font-family="'TabletGothic-Light'" font-size="4.628">504</tspan></text><circle fill="#FDC427" cx="1269.2" cy="732.4" r=".5"/><text transform="translate(1274.275 734.249)"><tspan x="0" y="0" fill="#FDC427" font-family="'TabletGothic-Light'" font-size="4.628">Stitch</tspan><tspan x="0" y="5.6" fill="#FDC427" font-family="'TabletGothic-Light'" font-size="4.628">1</tspan></text><path stroke="#B35D3D" stroke-miterlimit="10" fill="none" d="M1501.8 482.2l95.3-115.3m-95.3 115.3L1687.2 595m-185.4-112.8l174.3-26.7m-174.3 26.7l-16-183.8m16 183.8l-151.1-17.8m151.1 17.8L1482.6 699"/><path stroke="#F18D1A" stroke-miterlimit="10" fill="none" d="M1597.1 366.9l7.3-49.8m-7.3 49.8l27.5 31.9m-138.8-100.4l54.3-24.3m-54.3 24.3l10.9-38m-10.9 38l-19.8-57.9m18.9 57.9l-66-76.1m66 76.1l-62.5-33.9m62.5 33.9l-88.5 3.1m88.5-3.1l-60 27m60-27l-43.6 58.3m43.6-58.3l45.6 32.5m-45.6-32.5l22.2 47m-156.4 119l-36.1-33.2m36.7 33.2l-21.4 25.6m341.8-34l79.1 9.3m-79.1-9.3l44.4-65.7m-44.4 65.7l61.6-35.7m-61.6 35.7l11 60.7m-11-60.7l59.4 55.5m-59.4-55.5l47.4-141.8M1482.6 696l48.1 98.6m-48.1-98.6l67.2-65m-67.2 65l88.1-33.5m-88.1 33.5l93.1 36.5m-93.1-36.5l88.5 62.6m-88.5-62.6l-101.1 102.1M1482.6 696l-22.8 86.1m22.8-86.1l105.9 12.3M1482.6 696l-79 21.4m79-21.4l-99-13.1m99 13.1l-66.6-74.2"/><circle fill="#B35D3D" cx="1502.4" cy="482.2" r="106.1"/><text transform="translate(1442.742 478.804)"><tspan x="0" y="0" fill="#fff" font-family="'TabletGothic-Light'" font-size="6.943">Non-Communicable Diseases</tspan><tspan x="35.4" y="17.4" fill="#fff" font-family="'TabletGothic'" font-size="13.885" letter-spacing="1">48,732</tspan></text><circle stroke="#fff" stroke-width="2" stroke-miterlimit="10" stroke-dasharray="1.9905,4.9763" cx="1502.4" cy="482.2" r="99.8" fill="none"/><circle fill="#F18D1A" cx="1687.2" cy="595" r="60.2"/><text transform="translate(1670.648 591.577)"><tspan x="0" y="0" fill="#fff" font-family="'TabletGothic-Light'" font-size="6.943">Old Age</tspan><tspan x="-6.1" y="13.9" fill="#fff" font-family="'TabletGothic'" font-size="13.885" letter-spacing="1">15,757</tspan></text><circle fill="#FDC427" cx="1530.7" cy="795.9" r="26.8"/><text transform="translate(1516.913 790.651)"><tspan x="0" y="0" fill="#fff" font-family="'TabletGothic-Light'" font-size="6.943">Surfet</tspan><tspan x="-1.6" y="13.9" fill="#fff" font-family="'TabletGothic'" font-size="10.414" letter-spacing="1">3,094</tspan></text><circle fill="#FDC427" cx="1719.1" cy="311.3" r="45.6"/><text transform="translate(1694.062 309.291)"><tspan x="0" y="0" fill="#fff" font-family="'TabletGothic-Light'" font-size="6.943">Convulsion</tspan><tspan x="4.2" y="13.9" fill="#fff" font-family="'TabletGothic'" font-size="13.885" letter-spacing="1">9,073</tspan></text><circle fill="#FDC427" cx="1750.8" cy="465.3" r="17.4"/><text transform="translate(1773.521 462.196)"><tspan x="0" y="0" fill="#FDC427" font-family="'TabletGothic-Light'" font-size="4.628">Apoplex,</tspan><tspan x="0" y="5.6" fill="#FDC427" font-family="'TabletGothic-Light'" font-size="4.628">and sodainly</tspan><tspan x="0" y="11.1" fill="#FDC427" font-family="'TabletGothic-Light'" font-size="4.628">1,306</tspan></text><circle fill="#FDC427" cx="1570.7" cy="662.5" r="14.1"/><text transform="translate(1589.368 661.804)"><tspan x="0" y="0" fill="#FDC427" font-family="'TabletGothic-Light'" font-size="4.628">Stone, and Strangury</tspan><tspan x="0" y="5.6" fill="#FDC427" font-family="'TabletGothic-Light'" font-size="4.628">863</tspan></text><circle fill="#F18D1A" cx="1350.7" cy="464.4" r="11.9"/><text transform="translate(1313.68 465.258)"><tspan x="0" y="0" fill="#F18D1A" font-family="'TabletGothic-Light'" font-size="4.628">Cancer</tspan><tspan x="10.9" y="5.6" fill="#F18D1A" font-family="'TabletGothic-Light'" font-size="4.628">624</tspan></text><circle fill="#F18D1A" cx="1485.8" cy="298.4" r="17.4"/><text transform="translate(1507.904 301.381)"><tspan x="0" y="0" fill="#F18D1A" font-family="'TabletGothic-Light'" font-size="4.628">Neuro Mental illness</tspan><tspan x="0" y="5.6" fill="#F18D1A" font-family="'TabletGothic-Light'" font-size="4.628">1,298</tspan></text><circle fill="#F18D1A" cx="1597.1" cy="366.9" r="19.3"/><text transform="translate(1621.09 368.215)"><tspan x="0" y="0" fill="#F18D1A" font-family="'TabletGothic-Light'" font-size="4.628">Muscular skeletal</tspan><tspan x="0" y="5.6" fill="#F18D1A" font-family="'TabletGothic-Light'" font-size="4.628">1,641</tspan></text><circle fill="#FDC427" cx="1422.4" cy="264.5" r="2"/><text transform="translate(1394.112 265.878)"><tspan x="0" y="0" fill="#FDC427" font-family="'TabletGothic-Light'" font-size="4.628">Sciatica</tspan><tspan x="18.6" y="5.6" fill="#FDC427" font-family="'TabletGothic-Light'" font-size="4.628">15</tspan></text><circle fill="#FDC427" cx="1416" cy="621.8" r="17.8"/><text transform="translate(1347.018 620.654)"><tspan x="0" y="0" fill="#FDC427" font-family="'TabletGothic-Light'" font-size="4.628">Colick, and Wind</tspan><tspan x="34" y="5.6" fill="#FDC427" font-family="'TabletGothic-Light'" font-size="4.628">1,389</tspan></text><circle fill="#FDC427" cx="1682.7" cy="516.7" r="2"/><text transform="translate(1689.879 518.929)"><tspan x="0" y="0" fill="#FDC427" font-family="'TabletGothic-Light'" font-size="4.628">Mother</tspan><tspan x="0" y="5.6" fill="#FDC427" font-family="'TabletGothic-Light'" font-size="4.628">18</tspan></text><circle fill="#FDC427" cx="1383.6" cy="682.9" r="15.1"/><text transform="translate(1338.773 681.351)"><tspan x="0" y="0" fill="#FDC427" font-family="'TabletGothic-Light'" font-size="4.628">Jaundice</tspan><tspan x="15.7" y="5.6" fill="#FDC427" font-family="'TabletGothic-Light'" font-size="4.628">998</tspan></text><circle fill="#FDC427" cx="1604.4" cy="317.1" r="19.3"/><text transform="translate(1628.576 318.75)"><tspan x="0" y="0" fill="#FDC427" font-family="'TabletGothic-Light'" font-size="4.628">Impostume</tspan><tspan x="0" y="5.6" fill="#FDC427" font-family="'TabletGothic-Light'" font-size="4.628">1,639</tspan></text><circle fill="#FDC427" cx="1507.1" cy="345.4" r="1.5"/><text transform="translate(1513.137 347.538)"><tspan x="0" y="0" fill="#FDC427" font-family="'TabletGothic-Light'" font-size="4.628">Itch</tspan><tspan x="0" y="5.6" fill="#FDC427" font-family="'TabletGothic-Light'" font-size="4.628">11</tspan></text><circle fill="#FDC427" cx="1540.1" cy="274.1" r="5.5"/><text transform="translate(1550.453 276.515)"><tspan x="0" y="0" fill="#FDC427" font-family="'TabletGothic-Light'" font-size="4.628">Meagrom</tspan><tspan x="0" y="5.6" fill="#FDC427" font-family="'TabletGothic-Light'" font-size="4.628">132</tspan></text><circle fill="#FDC427" cx="1589.6" cy="706.5" r="18.1"/><text transform="translate(1610.893 703.168)"><tspan x="0" y="0" fill="#FDC427" font-family="'TabletGothic-Light'" font-size="4.628">Livergrown, Spleen</tspan><tspan x="0" y="5.6" fill="#FDC427" font-family="'TabletGothic-Light'" font-size="4.628">and Rickets</tspan><tspan x="0" y="11.1" fill="#FDC427" font-family="'TabletGothic-Light'" font-size="4.628">1,421</tspan></text><path fill="#FDC427" d="M1723.6 382.8c8.3 10.9-4 23.2-14.9 14.9-8.3-10.9 4-23.2 14.9-14.9z"/><text transform="translate(1730.701 393.463)"><tspan x="0" y="0" fill="#FDC427" font-family="'TabletGothic-Light'" font-size="4.628">Sodainly</tspan><tspan x="0" y="5.6" fill="#FDC427" font-family="'TabletGothic-Light'" font-size="4.628">454</tspan></text><circle fill="#FDC427" cx="1459.8" cy="782.1" r="5.7"/><text transform="translate(1470.409 784.498)"><tspan x="0" y="0" fill="#FDC427" font-family="'TabletGothic-Light'" font-size="4.628">Vomiting</tspan><tspan x="0" y="5.6" fill="#FDC427" font-family="'TabletGothic-Light'" font-size="4.628">136</tspan></text><circle fill="#FDC427" cx="1441.3" cy="356.7" r="3.5"/><text transform="translate(1448.81 358.73)"><tspan x="0" y="0" fill="#FDC427" font-family="'TabletGothic-Light'" font-size="4.628">Head-Ache</tspan><tspan x="0" y="5.6" fill="#FDC427" font-family="'TabletGothic-Light'" font-size="4.628">51</tspan></text><circle fill="#FDC427" cx="1466" cy="240.5" r="5.9"/><text transform="translate(1476.766 242.694)"><tspan x="0" y="0" fill="#FDC427" font-family="'TabletGothic-Light'" font-size="4.628">Lunatique</tspan><tspan x="0" y="5.6" fill="#FDC427" font-family="'TabletGothic-Light'" font-size="4.628">158</tspan></text><circle fill="#FDC427" cx="1733.3" cy="420.3" r="1.7"/><text transform="translate(1739.898 422.303)"><tspan x="0" y="0" fill="#FDC427" font-family="'TabletGothic-Light'" font-size="4.628">Calenture</tspan><tspan x="0" y="5.6" fill="#FDC427" font-family="'TabletGothic-Light'" font-size="4.628">13</tspan></text><circle fill="#FDC427" cx="1549.8" cy="631" r="12.4"/><text transform="translate(1566.094 626.42)"><tspan x="0" y="0" fill="#FDC427" font-family="'TabletGothic-Light'" font-size="4.628">Stopping</tspan><tspan x="0" y="5.6" fill="#FDC427" font-family="'TabletGothic-Light'" font-size="4.628">of the Stomach</tspan><tspan x="0" y="11.1" fill="#FDC427" font-family="'TabletGothic-Light'" font-size="4.628">669</tspan></text><circle fill="#FDC427" cx="1624.6" cy="398.8" r=".7"/><text transform="translate(1629.702 399.826)"><tspan x="0" y="0" fill="#FDC427" font-family="'TabletGothic-Light'" font-size="4.628">Cramp</tspan><tspan x="0" y="5.6" fill="#FDC427" font-family="'TabletGothic-Light'" font-size="4.628">2</tspan></text><circle fill="#FDC427" cx="1403.6" cy="717.4" r="3"/><text transform="translate(1378.653 719.241)"><tspan x="0" y="0" fill="#FDC427" font-family="'TabletGothic-Light'" font-size="4.628">Cut of</tspan><tspan x="-9.4" y="5.6" fill="#FDC427" font-family="'TabletGothic-Light'" font-size="4.628">the stone</tspan><tspan x="11.6" y="11.1" fill="#FDC427" font-family="'TabletGothic-Light'" font-size="4.628">38</tspan></text><circle fill="#FDC427" cx="1731.1" cy="511.5" r="7.4"/><text transform="translate(1742.186 513.436)"><tspan x="0" y="0" fill="#FDC427" font-family="'TabletGothic-Light'" font-size="4.628">Quinsy, and</tspan><tspan x="0" y="5.6" fill="#FDC427" font-family="'TabletGothic-Light'" font-size="4.628">Sore-throat</tspan><tspan x="0" y="11.1" fill="#FDC427" font-family="'TabletGothic-Light'" font-size="4.628">247</tspan></text><circle fill="#FDC427" cx="1571.2" cy="758.6" r="4"/><text transform="translate(1579.591 760.706)"><tspan x="0" y="0" fill="#FDC427" font-family="'TabletGothic-Light'" font-size="4.628">Spleen</tspan><tspan x="0" y="5.6" fill="#FDC427" font-family="'TabletGothic-Light'" font-size="4.628">68</tspan></text><circle fill="#FDC427" cx="1396.4" cy="301.5" r="9.9"/><text transform="translate(1366.886 300.564)"><tspan x="0" y="0" fill="#FDC427" font-family="'TabletGothic-Light'" font-size="4.628">Palsy</tspan><tspan x="6.5" y="5.6" fill="#FDC427" font-family="'TabletGothic-Light'" font-size="4.628">423</tspan></text><circle fill="#FDC427" cx="1314.6" cy="431.2" r="11.9"/><text transform="translate(1248.178 432.266)"><tspan x="0" y="0" fill="#FDC427" font-family="'TabletGothic-Light'" font-size="4.628">Cancer, Gangrene</tspan><tspan x="15.8" y="5.6" fill="#FDC427" font-family="'TabletGothic-Light'" font-size="4.628">and Fistula</tspan><tspan x="39.8" y="11.1" fill="#FDC427" font-family="'TabletGothic-Light'" font-size="4.628">609</tspan></text><circle fill="#FDC427" cx="1496.7" cy="260.4" r="4.2"/><text transform="translate(1505.65 262.851)"><tspan x="0" y="0" fill="#FDC427" font-family="'TabletGothic-Light'" font-size="4.628">Falling-Sickness</tspan><tspan x="0" y="5.6" fill="#FDC427" font-family="'TabletGothic-Light'" font-size="4.628">74</tspan></text><circle fill="#FDC427" cx="1575.7" cy="732.5" r=".7"/><text transform="translate(1580.844 734.595)"><tspan x="0" y="0" fill="#FDC427" font-family="'TabletGothic-Light'" font-size="4.628">Excessive Drinking</tspan><tspan x="0" y="5.6" fill="#FDC427" font-family="'TabletGothic-Light'" font-size="4.628">2</tspan></text><circle fill="#FDC427" cx="1424.9" cy="325.4" r="2.2"/><text transform="translate(1421.748 333.928)"><tspan x="0" y="0" fill="#FDC427" font-family="'TabletGothic-Light'" font-size="4.628">Frighted</tspan><tspan x="0" y="5.6" fill="#FDC427" font-family="'TabletGothic-Light'" font-size="4.628">21</tspan></text><circle fill="#FDC427" cx="1419" cy="222.1" r="5.5"/><text transform="translate(1396.58 220.606)"><tspan x="0" y="0" fill="#FDC427" font-family="'TabletGothic-Light'" font-size="4.628">Gout</tspan><tspan x="5.9" y="5.6" fill="#FDC427" font-family="'TabletGothic-Light'" font-size="4.628">134</tspan></text><circle fill="#FDC427" cx="1530.5" cy="330.9" r="7.9"/><text transform="translate(1542.469 333.046)"><tspan x="0" y="0" fill="#FDC427" font-family="'TabletGothic-Light'" font-size="4.628">Grief</tspan><tspan x="0" y="5.6" fill="#FDC427" font-family="'TabletGothic-Light'" font-size="4.628">279</tspan></text><circle fill="#FDC427" cx="1379.8" cy="792.7" r="47.1"/><text transform="translate(1336.695 789.847)"><tspan x="0" y="0" fill="#fff" font-family="'TabletGothic-Light'" font-size="6.943">Dropsy, and Tympany</tspan><tspan x="22.7" y="13.9" fill="#fff" font-family="'TabletGothic'" font-size="13.885" letter-spacing="1">9,623</tspan></text><circle fill="#FDC427" cx="1329.9" cy="490" r="2"/><text transform="translate(1336.609 492.265)"><tspan x="0" y="0" fill="#FDC427" font-family="'TabletGothic-Light'" font-size="4.628">Wen</tspan><tspan x="0" y="5.6" fill="#FDC427" font-family="'TabletGothic-Light'" font-size="4.628">15</tspan></text><circle fill="#F18D1A" cx="1671.7" cy="455.5" r="50.6"/><text transform="translate(1638.215 455.459)"><tspan x="0" y="0" fill="#fff" font-family="'TabletGothic-Light'" font-size="6.943">Cardiovascular</tspan><tspan x="16.8" y="13.9" fill="#fff" font-family="'TabletGothic'" font-size="13.885" letter-spacing="1">11,111</tspan></text><circle fill="#F18D1A" cx="1482.6" cy="693.6" r="65"/><text transform="translate(1448.463 693.62)"><tspan x="0" y="0" fill="#fff" font-family="'TabletGothic-Light'" font-size="6.943">Digestive illness</tspan><tspan x="13.7" y="13.9" fill="#fff" font-family="'TabletGothic'" font-size="13.885" letter-spacing="1">18,301</tspan></text><text transform="translate(1016.714 842.62)" fill="#fff" font-family="'TabletGothic'" font-size="19.68">Chart of Casualties</text><text transform="translate(1018.821 856.505)" opacity=".54" fill="#fff" font-family="'TabletGothic-Light'" font-size="12.3">17</text><text transform="matrix(.583 0 0 .583 1030.358 852.409)" opacity=".54" fill="#fff" font-family="'TabletGothic-Light'" font-size="12.3">th</text><text transform="translate(1040.196 856.505)" opacity=".54" fill="#fff" font-family="'TabletGothic-Light'" font-size="12.3">Century Death in London</text></svg>