<?xml version="1.0" encoding="utf-8"?>
<!-- Generator: Adobe Illustrator 17.1.0, SVG Export Plug-In . SVG Version: 6.00 Build 0)  -->
<!DOCTYPE svg PUBLIC "-//W3C//DTD SVG 1.1//EN" "http://www.w3.org/Graphics/SVG/1.1/DTD/svg11.dtd">
<svg version="1.1" id="Layer_1" xmlns="http://www.w3.org/2000/svg" xmlns:xlink="http://www.w3.org/1999/xlink" x="0px" y="0px"
	 viewBox="0 0 42 42" enable-background="new 0 0 42 42" xml:space="preserve">
<g>
	<g>
		<path fill-rule="evenodd" clip-rule="evenodd" fill="#999999" d="M21,0C9.4,0,0,9.4,0,21c0,11.6,9.4,21,21,21c11.6,0,21-9.4,21-21
			C42,9.4,32.6,0,21,0z M21,39.9C10.5,39.9,2.1,31.5,2.1,21S10.5,2.1,21,2.1c10.5,0,18.9,8.5,18.9,18.9S31.5,39.9,21,39.9z"/>
	</g>
</g>
<g id="giXSSx_3_">
	<g>
		<path fill="#808080" d="M20.4,30.8c-1,0-2.4-0.1-3.8-0.1c-1.3-0.1-2.6-0.2-3.9-0.5c-0.5-0.1-1.1-0.3-1.5-0.6
			c-0.6-0.4-0.8-1-0.5-1.7c0.3-0.7,0.6-1.3,1.2-1.9c0.6-0.7,1.4-1.1,2.3-1.2c0.9-0.2,1.8-0.4,2.7-0.7c0.1,0,0.2-0.1,0.3-0.1
			c0,0,0.1-0.1,0.1-0.1c0-0.4,0-0.8,0-1.2c0-0.1-0.1-0.2-0.1-0.2c-0.4-0.5-0.7-1-0.9-1.6c-0.1-0.3-0.2-0.5-0.5-0.8
			c-0.4-0.4-0.6-0.9-0.7-1.5c-0.1-0.4-0.2-0.8-0.2-1.2c0-0.3,0.1-0.6,0.3-0.9c0,0,0-0.1,0-0.2c-0.1-1.2,0-2.4,0.6-3.5
			c0.6-1.3,1.6-2.3,3-2.9c0.6-0.2,1.3-0.3,2-0.3c0.3,0,0.6,0,0.8,0c1.2,0.1,2.1,0.5,3,1.3c1,1,1.6,2.2,1.8,3.6
			c0.1,0.6,0.1,1.1,0,1.7c0,0,0,0.1,0,0.1c0.3,0.4,0.3,0.8,0.3,1.2c-0.1,0.7-0.2,1.4-0.6,2c-0.1,0.3-0.3,0.5-0.6,0.7
			c0,0-0.1,0.1-0.1,0.1c-0.2,0.7-0.5,1.3-0.9,1.9c-0.1,0.2-0.2,0.3-0.2,0.6c0,0.3,0,0.6,0,0.8c0,0.2,0.1,0.2,0.2,0.3
			c0.6,0.3,1.2,0.4,1.9,0.6c0.5,0.1,1,0.2,1.4,0.3c1.2,0.3,2.1,1,2.6,2.1c0.2,0.3,0.3,0.6,0.4,0.9c0.3,0.7,0.1,1.3-0.5,1.7
			c-0.4,0.3-1,0.5-1.5,0.6c-0.8,0.2-1.6,0.3-2.4,0.4c-1,0.1-2,0.2-3,0.2C22.6,30.8,21.6,30.8,20.4,30.8z"/>
	</g>
</g>
</svg>
