<svg width="207" height="79" viewBox="0 0 207 79" xmlns="http://www.w3.org/2000/svg" xmlns:xlink="http://www.w3.org/1999/xlink"><title>wellcome-library</title><desc>Created with Sketch.</desc><defs><path id="a" d="M.06.346h206.15V78.94H.06V.346z"/><path id="c" d="M.06.346h206.15V78.94H.06V.346z"/></defs><g fill="none" fill-rule="evenodd"><mask id="b"><use xlink:href="#a"/></mask><path d="M56.725 27.33c-.767 1.2-2.445 1.774-3.978 1.774-2.97 0-4.602-2.013-4.837-4.843h17.57v3.07h-8.755zm-3.88-12.173c2.44 0 4.17 1.87 4.17 4.17h-9.058c.43-2.684 2.06-4.17 4.888-4.17zM65.48 18.54c-1.507-6.093-5.783-9.472-13.5-9.472-5.028 0-8.988 2.42-11.194 6.053l1.724-5.428h-9.874L29.19 25.078h-.194L25.69 9.692h-8.867L13.66 25.078h-.096L9.874 9.692H0l7.764 24.876h9.728l3.69-15.29h.1l3.592 15.29h9.73l4.298-13.52c-.03.38-.052.765-.052 1.155 0 8.29 5.985 12.987 13.945 12.987 5.563 0 10.697-2.43 12.684-7.617v6.995h9.49V.346h-9.49V18.54z" fill="#1A1918" mask="url(#b)"/><path d="M65.48 36.436h9.49v34.22h-9.49v-34.22z" fill="#1A1918" mask="url(#b)"/><path d="M77.217 44.92h9.488v25.735h-9.488V44.92z" fill="#1A1918" mask="url(#b)"/><path d="M77.217 36.436h9.488v6.236h-9.488v-6.236z" fill="#1A1918" mask="url(#b)"/><path d="M99.926 15.972c1.007 0 1.822.284 2.397.812.622.53.96 1.343 1.052 2.35h8.13c-.184.965-.287 1.956-.287 2.97 0 .862.066 1.713.2 2.542h-7.802c-.192 1.963-1.628 3.64-3.69 3.64-3.643 0-4.17-3.113-4.17-6.133s.527-6.18 4.17-6.18zm24.855 0c3.594 0 4.073 3.498 4.073 6.133 0 2.637-.48 6.182-4.072 6.182-3.594 0-4.072-3.545-4.072-6.182 0-2.635.478-6.133 4.073-6.133zm68.137-.815c2.44 0 4.168 1.87 4.168 4.17h-9.057c.43-2.684 2.06-4.17 4.89-4.17zM99.737 35.19c5.813 0 10.575-2.847 12.338-8 1.656 4.584 5.764 8 12.706 8 8.048 0 12.284-4.59 13.308-10.267v9.645h9.49v-13.47c0-2.587.818-4.455 3.215-4.455 2.874 0 3.113 2.108 3.113 4.454v13.47h9.49v-13.47c0-2.586.812-4.454 3.21-4.454 2.875 0 3.116 2.108 3.116 4.454v13.47h9.49v-9.34c1.288 6.396 6.725 9.963 13.654 9.963 5.655 0 10.88-2.494 12.796-7.86h-8.868c-.763 1.2-2.442 1.774-3.975 1.774-2.973 0-4.604-2.013-4.842-4.843h18.21c0-9.68-4.264-15.192-14.137-15.192-6.788 0-11.64 4.408-12.838 10.27v-1.833c0-4.03-2.155-8.437-8.533-8.437-6.185 0-8.1 3.596-8.483 3.883-1.15-2.493-4.025-3.882-6.712-3.882-3.45 0-6.23 1.056-8.147 3.933h-.093V9.693h-9.157v9.6c-1.024-5.67-5.26-10.224-13.307-10.224-6.99 0-11.11 3.435-12.743 8.054-1.403-5.465-6.46-8.054-12.3-8.054-6.306 0-11.54 3.726-13.032 9.6V.347h-9.488v34.222h9.488v-8.932c1.493 5.865 6.726 9.554 13.03 9.554z" fill="#1A1918" mask="url(#b)"/><mask id="d"><use xlink:href="#c"/></mask><path d="M149.676 61.513c-.145 2.678-1.882 4.012-4.1 4.012-1.788 0-3.07-1.184-3.07-2.38 0-1.732 1.133-2.267 3.307-2.764 1.335-.303 2.67-.643 3.863-1.24v2.373zm-46.744 2.696c-3.253 0-4.705-2.048-4.705-6.634 0-5.67 3.64-6.11 4.755-6.11 3.395 0 4.604 3.157 4.604 6.11 0 3.206-1.222 6.633-4.654 6.633zm44.66-19.872c-4.176 0-8.702.56-11.226 3.252v-2.364c-.925-.247-1.87-.395-2.853-.395-3.574 0-5.655 1.686-7.235 4.746l-.103-.485V44.99h-9.4v8.764c-1.128-5.018-4.722-9.456-11.166-9.456-2.914 0-5.29.913-7.08 2.715V36.437H88.95v34.232h9.174v-2.084c1.722 1.833 4.058 2.795 6.826 2.795 7.253 0 10.736-4.918 11.822-10.223v9.51h9.808V60.533c0-5.502 2.07-7.776 5.93-7.776h10.981c.055-1.09.644-2.624 3.658-2.624 1.587 0 3.222.64 3.222 2.38 0 1.632-1.336 2.02-2.676 2.265-4.99.955-14.5.66-14.5 8.766 0 5.395 4.11 7.773 9.048 7.773 3.178 0 6.2-.697 8.277-3.07h.096c-.05.692.097 1.733.344 2.422h8.81V54.39c0-4.953.1-10.052-12.178-10.052z" fill="#1A1918" mask="url(#d)"/><path d="M196.056 45.007l-4.15 14.752h-.104L187.7 45.006h-11.77c-2.453.515-4.05 2.118-5.32 4.59h-.104v-4.59h-9.402v25.68h9.802V60.553c0-5.5 2.076-7.774 5.934-7.774.83 0 2.744.05 3.273.137l1.45 3.917c.536 1.484 4.304 10.94 4.304 12.178 0 1.138-.357 1.63-.943 1.936-.69.344-1.98.25-2.974.25h-2.276V79h4.46c3.818 0 7.77.055 10.342-3.158 1.523-1.947 2.43-4.85 3.214-7.13l8.52-23.705h-10.154" fill="#1A1918" mask="url(#d)"/></g></svg>