<?xml version="1.0" encoding="utf-8"?>
<!-- Generator: Adobe Illustrator 17.1.0, SVG Export Plug-In . SVG Version: 6.00 Build 0)  -->
<!DOCTYPE svg PUBLIC "-//W3C//DTD SVG 1.1//EN" "http://www.w3.org/Graphics/SVG/1.1/DTD/svg11.dtd">
<svg version="1.1" id="Layer_1" xmlns="http://www.w3.org/2000/svg" xmlns:xlink="http://www.w3.org/1999/xlink" x="0px" y="0px"
	 viewBox="0 0 42 42" enable-background="new 0 0 42 42" xml:space="preserve">
<g>
	<g>
		<path fill-rule="evenodd" clip-rule="evenodd" fill="#FFFFFF" d="M21,0C9.4,0,0,9.4,0,21c0,11.6,9.4,21,21,21c11.6,0,21-9.4,21-21
			C42,9.4,32.6,0,21,0z M21,39.9C10.5,39.9,2.1,31.5,2.1,21S10.5,2.1,21,2.1c10.5,0,18.9,8.5,18.9,18.9S31.5,39.9,21,39.9z
			 M15.5,16.8c-0.1,0.1-0.2,0.1-0.3,0.1c-1.4,0-2.8,0-4.2,0h-0.2v8.1H11c1.4,0,2.8,0,4.2,0c0.1,0,0.2,0,0.3,0.1
			c1.9,1.6,3.8,3.1,5.7,4.7c0.3,0.3,0.7,0.6,1.1,0.9V11.3c-0.1,0-0.1,0.1-0.1,0.1C19.9,13.2,17.7,15,15.5,16.8z M26.8,19.7
			c-0.2-1.4-0.9-2.7-1.9-3.7c-0.3-0.3-0.7-0.4-1.1-0.3c-0.7,0.2-0.9,1.1-0.4,1.7c1.1,1.2,1.6,2.6,1.4,4.2c-0.1,1.1-0.6,2-1.4,2.7
			c-0.4,0.4-0.4,1.1,0,1.5c0.4,0.4,1.1,0.4,1.5,0c1.3-1.3,1.9-2.9,2-5C26.9,20.6,26.9,20.2,26.8,19.7z M27.2,13.6
			c-0.3-0.3-0.6-0.4-1-0.3c-0.7,0.2-1.1,1.1-0.4,1.8c1.7,1.8,2.5,3.9,2.3,6.4c-0.1,1.3-0.5,2.6-1.2,3.7c-0.3,0.5-0.8,1-1.2,1.5
			c-0.4,0.4-0.4,1,0,1.4c0.3,0.4,1,0.4,1.4,0.1c0.2-0.1,0.3-0.3,0.4-0.4c1.7-2,2.6-4.3,2.7-7.2c0-0.3-0.1-0.9-0.2-1.5
			C29.7,17,28.7,15.2,27.2,13.6z"/>
	</g>
</g>
</svg>
