<svg width="34" height="33" viewBox="0 0 34 33" xmlns="http://www.w3.org/2000/svg" xmlns:sketch="http://www.bohemiancoding.com/sketch/ns"><title>Shape</title><desc>Created with Sketch.</desc><path d="M27 10.6c2.8 0 5-2.3 5-5 0-2.8-2.3-5-5-5s-5 2.3-5 5c0 .2 0 .4.1.6l-12.7 6.4c-.9-.9-2.1-1.4-3.5-1.4-2.8 0-5 2.3-5 5 0 2.8 2.3 5 5 5 1.4 0 2.7-.6 3.6-1.5l12.7 6.4c0 .2-.1.4-.1.7 0 2.8 2.3 5 5 5s5-2.3 5-5c0-2.8-2.3-5-5-5-1.4 0-2.7.6-3.6 1.5l-12.7-6.4.1-.7c0-.3 0-.5-.1-.8l12.6-6.4c.8 1 2.1 1.6 3.6 1.6z" sketch:type="MSShapeGroup" fill="#5CB8B3"/></svg>