<?xml version="1.0" encoding="UTF-8" standalone="no"?>
<svg width="48px" height="47px" viewBox="0 0 48 47" version="1.1" xmlns="http://www.w3.org/2000/svg" xmlns:xlink="http://www.w3.org/1999/xlink" xmlns:sketch="http://www.bohemiancoding.com/sketch/ns">
    <!-- Generator: Sketch 3.2.2 (9983) - http://www.bohemiancoding.com/sketch -->
    <title>Group</title>
    <desc>Created with Sketch.</desc>
    <defs></defs>
    <g id="Page-1" stroke="none" stroke-width="1" fill="none" fill-rule="evenodd" sketch:type="MSPage">
        <g id="pathway-icons-02" sketch:type="MSLayerGroup" transform="translate(-1165.000000, -270.000000)">
            <g id="Group" transform="translate(1165.000000, 270.000000)" sketch:type="MSShapeGroup">
                <path d="M24,0.2 C11.1,0.2 0.7,10.6 0.7,23.5 C0.7,36.4 11.1,46.8 24,46.8 C36.9,46.8 47.3,36.4 47.3,23.5 C47.2,10.6 36.8,0.2 24,0.2 L24,0.2 Z M24,43.1 C13.1,43.1 4.3,34.3 4.3,23.4 C4.3,12.5 13.1,3.7 24,3.7 C34.9,3.7 43.7,12.5 43.7,23.4 C43.7,34.3 34.8,43.1 24,43.1 L24,43.1 Z" id="Shape" fill="#FFFFFF"></path>
                <path d="M24,43.1089181 C13.1,43.1089181 4.3,34.3089181 4.3,23.4089181 C4.3,12.5089181 13.1,3.70891814 24,3.70891814 C34.9,3.70891814 43.7,12.5089181 43.7,23.4089181 C43.7,34.3089181 34.8,43.1089181 24,43.1089181 L24,43.1089181 Z" id="Shape-2" fill-opacity="0.25" fill="#000000"></path>
                <path d="M32.9,21.8 L19.3,13.7 C17.7,12.8 16.7,13.6 16.7,15.3 L16.7,31.7 C16.7,33.5 17.8,34.2 19.3,33.3 L33,25.2 C34.5,24.3 34.5,22.8 32.9,21.8 L32.9,21.8 Z" id="Shape" fill="#FFFFFF"></path>
            </g>
        </g>
    </g>
</svg>