<svg width="64" height="63" viewBox="0 0 64 63" xmlns="http://www.w3.org/2000/svg"><title>Group</title><desc>Created with Sketch.</desc><g transform="translate(-328 -592) translate(329 592)" fill="none"><circle opacity=".25" fill="#000" cx="30.7" cy="31.7" r="28.7"/><path d="M30.8 62.9c17.3 0 31.3-14 31.3-31.3S48.1.3 30.8.3-.5 14.3-.5 31.6c.1 17.3 14 31.3 31.3 31.3zm0-57.7c14.6 0 26.4 11.8 26.4 26.4C57.2 46.2 45.4 58 30.8 58 16.2 58 4.4 46.2 4.4 31.6 4.4 17 16.2 5.2 30.8 5.2zm-2.9 40.1l13.7-13.7-13.7-13.7-3.9 3.9 9.8 9.8-9.8 9.8 3.9 3.9z" fill="#fff"/></g></svg>