<svg width="64" height="64" viewBox="0 0 64 64" xmlns="http://www.w3.org/2000/svg"><title>Group</title><desc>Created with Sketch.</desc><path d="M32 .8C14.7.8.7 14.8.7 32.1s14 31.3 31.3 31.3 31.3-14 31.3-31.3C63.2 14.8 49.3.8 32 .8zm0 57.7c-14.6 0-26.4-11.8-26.4-26.4C5.6 17.5 17.4 5.7 32 5.7c14.6 0 26.4 11.8 26.4 26.4 0 14.6-11.8 26.4-26.4 26.4zm.7-42c-8.6 0-12.9 6.1-12.9 11.2 0 3.1 1.2 5.8 3.7 6.9.4.2.8 0 .9-.4l.4-1.4c.1-.5.1-.6-.3-1-.7-.9-1.2-2-1.2-3.5 0-4.5 3.4-8.6 8.9-8.6 4.8 0 7.5 2.9 7.5 6.9 0 5.2-2.3 9.5-5.7 9.5-1.9 0-3.3-1.6-2.8-3.5.5-2.3 1.6-4.7 1.6-6.4 0-1.5-.8-2.7-2.4-2.7-1.9 0-3.5 2-3.5 4.6 0 1.7.6 2.8.6 2.8s-2 8.3-2.3 9.8c-.7 2.9-.1 6.5-.1 6.8 0 .2.3.3.4.1.2-.2 2.5-3.1 3.3-5.9.2-.8 1.3-4.9 1.3-4.9.6 1.2 2.5 2.2 4.4 2.2 5.8 0 9.7-5.3 9.7-12.3 0-5.3-4.6-10.2-11.5-10.2z"/></svg>