<?xml version="1.0" encoding="utf-8"?>
<!-- Generator: Adobe Illustrator 17.1.0, SVG Export Plug-In . SVG Version: 6.00 Build 0)  -->
<!DOCTYPE svg PUBLIC "-//W3C//DTD SVG 1.1//EN" "http://www.w3.org/Graphics/SVG/1.1/DTD/svg11.dtd">
<svg version="1.1" id="Layer_1" xmlns="http://www.w3.org/2000/svg" xmlns:xlink="http://www.w3.org/1999/xlink" x="0px" y="0px"
	 viewBox="0 0 32 32" enable-background="new 0 0 32 32" xml:space="preserve">
<g>
	<g>
		<path fill="#333333" d="M32,22.1c-0.2-1.9-0.5-3.8-0.7-5.7c-0.4-2.8-0.7-5.6-1.1-8.5c-0.2-1.9-1-2.3-2.4-2.1
			C26.9,5.9,15.8,7.5,14,7.7c-0.9,0.1-1.7,0.4-1.3,2.5c-1-0.2-2-0.3-3.1-0.5c-2-0.3-3.9-0.6-5.9-0.9c-0.7-0.1-2.1,0-2.1,1.8
			c-0.2,1.6-0.5,3.3-0.7,4.9c-0.3,2-0.6,4.1-0.8,6.1c-0.1,0.7,0,2.1,1.8,2.1C3.4,24,5,24.3,6.5,24.5c2,0.3,4,0.6,6,0.9
			c1.6,0.2,1.5-0.7,1.9-1.4c0,0,0,0,0,0c0,0.1,0,0.1,0,0.2c0.3,2.2,0.9,2.4,2.4,2.2c0.4,0,11.7-1.5,13.9-1.8
			C32,24.5,32.1,23,32,22.1z M13.4,19.4c-0.2,1.3-0.4,2.6-0.5,3.9c0,0.4-0.1,0.4-0.4,0.3c-1.8-0.3-3.7-0.5-5.5-0.8
			c-1.6-0.2-3.3-0.5-4.9-0.7c-0.3,0-0.3-0.1-0.3-0.4c0.3-2.1,0.6-4.2,0.9-6.3c0.2-1.5,0.4-3,0.6-4.5c0-0.2,0.1-0.3,0.3-0.2
			c2.4,0.4,4.8,0.7,7.2,1.1c0.6,0.1,1.3,0.2,1.9,0.3c0.1,0,0.2,0.1,0.2,0.2c0.2,1.9,0.5,3.8,0.7,5.7c0,0,0,0.1,0,0.1
			C13.6,18.4,13.5,18.9,13.4,19.4z M29.7,22.6c-0.9,0.1-1.8,0.2-2.7,0.4c-1.3,0.2-2.7,0.4-4,0.6s-2.7,0.4-4,0.6
			c-1,0.1-2,0.3-2.9,0.4c-0.3,0-0.4,0-0.4-0.3c-0.2-1.4-0.4-2.7-0.5-4.1c-0.2-1.5-0.4-3-0.6-4.4c-0.2-1.4-0.4-2.8-0.5-4.2
			c-0.1-0.5-0.1-1-0.2-1.4c0-0.2,0.1-0.3,0.2-0.3c0.9-0.1,1.8-0.3,2.7-0.4c1.4-0.2,2.9-0.4,4.3-0.6c1.4-0.2,2.9-0.4,4.3-0.6
			C26.2,8.1,27,8,27.8,7.9c0.3,0,0.3,0,0.4,0.3c0.2,1.5,0.4,3,0.6,4.5c0.2,1.6,0.4,3.2,0.6,4.7c0.2,1.5,0.4,3,0.6,4.4
			c0,0.2,0,0.3,0.1,0.5C30,22.5,29.9,22.6,29.7,22.6z M23.9,11.5c-0.6-0.5-1.4-0.6-2.1-0.6c-0.7,0-1.3,0.1-1.9,0.4
			c-0.8,0.4-1.4,1-1.7,1.9c-0.1,0.3-0.1,0.6-0.1,0.9c0,0.4,0.3,0.7,0.7,0.8c0.4,0.1,0.9-0.1,1.1-0.5c0.1-0.3,0.2-0.5,0.3-0.8
			c0.2-0.5,0.5-0.8,0.9-0.8c0.2,0,0.4,0,0.6,0c0.4,0,0.8,0.3,0.9,0.8c0.1,0.3,0,0.6-0.2,0.9c-0.2,0.2-0.3,0.4-0.5,0.6
			c-0.3,0.4-0.6,0.7-0.9,1.1c-0.2,0.3-0.3,0.7-0.3,1.1c0,0.5,0.3,0.9,0.7,1c0.6,0.1,1.1-0.1,1.2-0.7c0.1-0.5,0.3-0.8,0.7-1.2
			c0.4-0.4,0.8-0.8,1.1-1.2C25.2,13.8,24.9,12.3,23.9,11.5z M22.1,18.8c-0.7,0-1.2,0.6-1.2,1.3c0,0.7,0.6,1.2,1.2,1.2
			c0.7,0,1.2-0.6,1.2-1.2C23.3,19.4,22.8,18.8,22.1,18.8z M8.4,13c-0.6,0-1,0.1-1.3,0.3c-0.5,0.3-1,0.7-1.1,1.3
			c-0.1,0.4,0,0.6,0.2,0.8c0.4,0.3,0.8,0.2,1.1-0.2c0.1-0.1,0.1-0.2,0.2-0.3c0.3-0.5,0.7-0.6,1.3-0.5c0.6,0.2,0.8,0.9,0.3,1.4
			c-0.2,0.2-0.4,0.3-0.6,0.5c-0.3,0.2-0.6,0.3-0.8,0.5c-0.3,0.2-0.4,0.5-0.5,0.8c-0.1,0.4,0.1,0.8,0.4,0.9c0.4,0.2,0.8,0,1-0.4
			c0.2-0.3,0.4-0.5,0.7-0.7c0.3-0.2,0.6-0.3,0.9-0.6c1.1-0.8,1.1-2.3,0.1-3.2C9.7,13.2,9,13,8.4,13z M7.6,19.1c-0.5,0-0.9,0.4-0.9,1
			c0,0.5,0.4,1,0.9,1c0.5,0,0.9-0.4,0.9-1C8.5,19.6,8.1,19.1,7.6,19.1z"/>
	</g>
</g>
</svg>
