<?xml version="1.0" encoding="UTF-8" standalone="no"?>
<svg width="7px" height="24px" viewBox="0 0 7 24" version="1.1" xmlns="http://www.w3.org/2000/svg" xmlns:xlink="http://www.w3.org/1999/xlink">


        <g id="Group" transform="translate(-11.000000, -3.000000)">
            <path d="M15,30 C6.70050761,30 0,23.2994924 0,15 C0,6.70050761 6.70050761,0 15,0 C23.2994924,0 30,6.70050761 30,15 C30,23.2994924 23.2994924,30 15,30 L15,30 Z" id="Shape-4" opacity="0" fill="#000000"></path>
            <path d="M17.4,22.4 C16.3,23.6 15.5,24.1 15,24.1 C14.6,24.1 14.6,23.8 14.6,23.1 C14.8,21.2 16.2,15.4 16.6,13.3 C17,11.5 16.9,10.5 16.4,10.5 C15.4,10.5 13.1,12.1 11.5,13.7 C11.4,13.8 11.3,14.4 11.4,14.7 C11.4,14.8 11.5,14.8 11.5,14.8 C12.5,14.1 13.1,13.6 13.6,13.6 C13.8,13.6 13.9,13.9 13.7,14.4 C13.3,16.7 12.4,20.4 11.8,23.3 C11.3,25.9 11.6,26.9 12.4,26.9 C13.2,26.9 15.5,25.8 17.3,23.3 C17.4,23.1 17.4,22.4 17.4,22.2 L17.4,22.4 L17.4,22.4 Z" id="Shape" fill="#5CB8B2"></path>
            <path d="M17,3.8 C16.3,3.8 15.5,4.1 15.1,4.5 C15,4.7 14.8,5.2 14.7,5.6 C14.8,6.3 14.9,6.7 15.3,6.9 C15.5,7 16.8,7 17,6.8 C17.4,6.5 17.9,5.8 18,5.2 C18,4.8 17.9,4.4 17.8,4.2 C17.9,4 17.5,3.8 17,3.8 L17,3.8 Z" id="Shape" fill="#5CB8B2"></path>
        </g>

</svg>
