<svg width="64" height="63" viewBox="0 0 64 63" xmlns="http://www.w3.org/2000/svg"><title>Group</title><desc>Created with Sketch.</desc><g transform="translate(-631 -593) translate(632 593)" fill="none"><circle opacity=".25" fill="#000" cx="30.7" cy="32.7" r="28.7"/><path d="M30.8.3C13.5.3-.5 14.3-.5 31.6s14 31.3 31.3 31.3 31.3-14 31.3-31.3S48.1.3 30.8.3zm0 57.6c-14.6 0-26.4-11.8-26.4-26.4 0-14.6 11.8-26.4 26.4-26.4 14.6 0 26.4 11.8 26.4 26.4 0 14.6-11.8 26.4-26.4 26.4zM45.1 46L16.5 17.4c-.5-.5-1.4-.5-1.9 0s-.5 1.4 0 1.9l28.6 28.6c.5.5 1.4.5 1.9 0s.5-1.4 0-1.9zM41.6 41.1V21.7c0-2.4-.5-3.4-2.5-2.2l-11.9 7.2 14.4 14.4zM20.7 26.8h-1.6c-.5 0-1 .4-1 1v9.8c0 .5.4 1 1 1h8.2L39 45.9c.5.3.9.4 1.2.5L20.7 26.8z" fill="#fff"/><path d="M45.1 46L16.5 17.4c-.5-.5-1.4-.5-1.9 0s-.5 1.4 0 1.9l28.6 28.6c.5.5 1.4.5 1.9 0s.5-1.4 0-1.9z" fill="#fff"/></g></svg>