<svg width="63" height="63" viewBox="0 0 63 63" xmlns="http://www.w3.org/2000/svg" xmlns:sketch="http://www.bohemiancoding.com/sketch/ns"><title>Group</title><desc>Created with Sketch.</desc><g transform="translate(-525 -593) translate(525 593)" sketch:type="MSShapeGroup" fill="none"><circle opacity=".25" fill="#000" cx="30.7" cy="30.7" r="28.7"/><path d="M31.5.3c-17.3 0-31.3 14-31.3 31.3s14 31.3 31.3 31.3 31.3-14 31.3-31.3c-.1-17.3-14.1-31.3-31.3-31.3zm0 57.6c-14.6 0-26.4-11.8-26.4-26.4 0-14.6 11.8-26.4 26.4-26.4 14.6 0 26.4 11.8 26.4 26.4 0 14.6-11.9 26.4-26.4 26.4zM38.7 18.4l-12.1 7.3h-7.8c-.5 0-1 .4-1 1v9.8c0 .5.4 1 1 1h8.2l11.7 7.3c2.1 1.2 2.5.2 2.5-2.2v-22c0-2.5-.4-3.4-2.5-2.2z" fill="#fff"/></g></svg>