<svg width="64" height="63" viewBox="0 0 64 63" xmlns="http://www.w3.org/2000/svg" xmlns:sketch="http://www.bohemiancoding.com/sketch/ns"><title>Group</title><desc>Created with Sketch.</desc><path d="M63.4 31.6c0-17.3-14-31.3-31.3-31.3s-31.3 14-31.3 31.3 14 31.3 31.3 31.3 31.3-14 31.3-31.3zm-57.6 0c0-14.6 11.8-26.4 26.4-26.4 14.6 0 26.4 11.8 26.4 26.4 0 14.6-11.8 26.4-26.4 26.4-14.6 0-26.4-11.8-26.4-26.4zm40.1 2.9l-13.7-13.7-13.7 13.7 3.9 3.9 9.8-9.7 9.7 9.7 4-3.9z" sketch:type="MSShapeGroup" fill="#fff"/></svg>