<svg width="63" height="63" viewBox="0 0 63 63" xmlns="http://www.w3.org/2000/svg" xmlns:sketch="http://www.bohemiancoding.com/sketch/ns"><title>Group</title><desc>Created with Sketch.</desc><g transform="translate(-423 -592) translate(423 592)" sketch:type="MSShapeGroup" fill="none"><circle opacity=".25" fill="#000" cx="30.7" cy="31.7" r="28.7"/><path d="M41.2 19l-9.7 9.7-9.7-9.7-2.7 2.8 9.6 9.6-9.6 9.7 2.7 2.8 9.7-9.7 9.7 9.7 2.7-2.8-9.6-9.7 9.6-9.6-2.7-2.8zM31.5.2c-17.3 0-31.3 14-31.3 31.3s14 31.3 31.3 31.3 31.3-14 31.3-31.3-14-31.3-31.3-31.3zm0 57.6c-14.6 0-26.4-11.8-26.4-26.4 0-14.6 11.8-26.4 26.4-26.4 14.6 0 26.4 11.8 26.4 26.4 0 14.6-11.8 26.4-26.4 26.4z" fill="#fff"/></g></svg>