<?xml version="1.0" encoding="UTF-8" standalone="no"?>
<svg width="48px" height="47px" viewBox="0 0 48 47" version="1.1" xmlns="http://www.w3.org/2000/svg" xmlns:xlink="http://www.w3.org/1999/xlink" xmlns:sketch="http://www.bohemiancoding.com/sketch/ns">
    <!-- Generator: Sketch 3.2.2 (9983) - http://www.bohemiancoding.com/sketch -->
    <title>Group</title>
    <desc>Created with Sketch.</desc>
    <defs></defs>
    <g id="Page-1" stroke="none" stroke-width="1" fill="none" fill-rule="evenodd" sketch:type="MSPage">
        <g id="pathway-icons-02" sketch:type="MSLayerGroup" transform="translate(-1173.000000, -160.000000)">
            <g id="Group" transform="translate(1173.000000, 160.000000)" sketch:type="MSShapeGroup">
                <path d="M24,0.3 C11.1,0.3 0.7,10.7 0.7,23.6 C0.7,36.5 11.1,46.9 24,46.9 C36.9,46.9 47.3,36.5 47.3,23.6 C47.3,10.7 36.8,0.3 24,0.3 L24,0.3 Z M24,43.3 C13.1,43.3 4.3,34.5 4.3,23.6 C4.3,12.7 13.1,3.9 24,3.9 C34.9,3.9 43.7,12.7 43.7,23.6 C43.6,34.4 34.8,43.3 24,43.3 L24,43.3 Z" id="Shape" fill="#FFFFFF"></path>
                <path d="M24,43.25 C13.1,43.25 4.3,34.45 4.3,23.55 C4.3,12.65 13.1,3.85 24,3.85 C34.9,3.85 43.7,12.65 43.7,23.55 C43.6,34.35 34.8,43.25 24,43.25 L24,43.25 Z" id="Shape-3" fill-opacity="0.25" fill="#000000"></path>
                <path d="M25.4,30.8 L31.2,30.8 L31.2,20.3 L31.2,16.3 L25.4,16.3 L25.4,30.8 Z" id="Shape" fill="#FFFFFF"></path>
                <rect id="Rectangle-path" fill="#FFFFFF" x="16.7" y="16.3" width="5.8" height="14.5"></rect>
            </g>
        </g>
    </g>
</svg>