<?xml version="1.0" encoding="utf-8"?>
<!-- Generator: Adobe Illustrator 17.1.0, SVG Export Plug-In . SVG Version: 6.00 Build 0)  -->
<!DOCTYPE svg PUBLIC "-//W3C//DTD SVG 1.1//EN" "http://www.w3.org/Graphics/SVG/1.1/DTD/svg11.dtd">
<svg version="1.1" id="Layer_1" xmlns="http://www.w3.org/2000/svg" xmlns:xlink="http://www.w3.org/1999/xlink" x="0px" y="0px"
	 viewBox="0 0 42 42" enable-background="new 0 0 42 42" xml:space="preserve">
<circle opacity="0.8" cx="21.1" cy="20.9" r="18.6"/>
<g>
	<path fill-rule="evenodd" clip-rule="evenodd" fill="#FFFFFF" d="M21,0C9.4,0,0,9.4,0,21s9.4,21,21,21c11.6,0,21-9.4,21-21
		S32.5,0,21,0z M21,38.6c-9.8,0-17.7-7.9-17.7-17.7S11.2,3.3,21,3.3c9.8,0,17.7,7.9,17.7,17.7S30.7,38.6,21,38.6z"/>
	<path fill="#FFFFFF" d="M27.1,12.1L19,17h-5.3c-0.4,0-0.7,0.3-0.7,0.7v6.5c0,0.4,0.3,0.7,0.7,0.7h5.5l7.8,4.9
		c1.4,0.8,1.7,0.2,1.7-1.5V13.6C28.8,12,28.5,11.3,27.1,12.1z"/>
</g>
</svg>
