<?xml version="1.0" encoding="utf-8"?>
<!-- Generator: Adobe Illustrator 17.1.0, SVG Export Plug-In . SVG Version: 6.00 Build 0)  -->
<!DOCTYPE svg PUBLIC "-//W3C//DTD SVG 1.1//EN" "http://www.w3.org/Graphics/SVG/1.1/DTD/svg11.dtd">
<svg version="1.1" id="Layer_1" xmlns="http://www.w3.org/2000/svg" xmlns:xlink="http://www.w3.org/1999/xlink" x="0px" y="0px"
	 viewBox="0 0 32 32" enable-background="new 0 0 32 32" xml:space="preserve">
<g>
	<path fill="#FFFFFF" d="M16,0C7.3,0,0.2,7.1,0.2,15.9S7.3,31.8,16,31.8s15.9-7.1,15.9-15.9S24.8,0,16,0z M16,29.2
		c-7.4,0-13.4-6-13.4-13.4S8.6,2.5,16,2.5s13.4,6,13.4,13.4S23.4,29.2,16,29.2z"/>
	<g>
		<g>
			<path fill="#FFFFFF" d="M17.4,8.4c0.6-0.3,0.8-0.5,0.8-0.5H13c-1,0-3.9,1.2-3.9,3.9c0,2.7,3,3.3,4.1,3.3
				c-0.6,0.8-0.1,1.4,0.3,1.8c0.3,0.4,0.3,0.5-0.2,0.5s-5.2,0.1-5.2,3.5s6.4,3.7,8.5,1.8c2.1-1.8,1.6-4.4,0-5.5
				c-1.6-1.2-2.2-1.7-1.2-2.6c1-0.9,1.9-1.7,1.9-3.3c0-1.7-1.4-2.6-1.4-2.6S16.8,8.8,17.4,8.4z M16.6,20.7c0,1.5-1.3,2.2-3.4,2.2
				s-3.3-1.1-3.3-2.6c0-1.6,1.6-2.4,4.5-2.4C15.2,18.4,16.6,19.2,16.6,20.7z M13.5,14.5c-2.6,0-3.8-6-0.7-6
				C15.2,8.4,16.9,14.5,13.5,14.5z M22,9.9V8h-1v1.9h-2v1h2v2h1v-2h1.9v-1H22z"/>
		</g>
	</g>
</g>
</svg>
