<svg width="48" height="47" viewBox="0 0 48 47" xmlns="http://www.w3.org/2000/svg"><title>Group</title><desc>Created with Sketch.</desc><g fill="none" fill-rule="evenodd"><g><g><path d="M24 .3C11.1.3.7 10.7.7 23.6S11.1 46.9 24 46.9s23.3-10.4 23.3-23.3S36.8.3 24 .3zm0 43c-10.9 0-19.7-8.8-19.7-19.7C4.3 12.7 13.1 3.9 24 3.9c10.9 0 19.7 8.8 19.7 19.7-.1 10.8-8.9 19.7-19.7 19.7z" id="Shape" fill="#fff"/><path d="M24 43.25c-10.9 0-19.7-8.8-19.7-19.7 0-10.9 8.8-19.7 19.7-19.7 10.9 0 19.7 8.8 19.7 19.7-.1 10.8-8.9 19.7-19.7 19.7z" fill-opacity=".25" fill="#000"/><path d="M25.4 30.8h5.8V16.3h-5.8v14.5z" fill="#fff"/><path fill="#fff" d="M16.7 16.3h5.8v14.5h-5.8z"/></g></g></g></svg>