<svg width="48" height="47" viewBox="0 0 48 47" xmlns="http://www.w3.org/2000/svg"><title>Group</title><desc>Created with Sketch.</desc><g fill="none" fill-rule="evenodd"><g><g><path d="M23.9 43.1C13 43.1 4.2 34.3 4.2 23.4 4.2 12.5 13 3.7 23.9 3.7c10.9 0 19.7 8.8 19.7 19.7 0 10.9-8.8 19.7-19.7 19.7z" id="Shape" fill-opacity=".25" fill="#000"/><path d="M23.9.2C11 .2.6 10.6.6 23.5S11 46.8 23.9 46.8s23.3-10.4 23.3-23.3S36.8.2 23.9.2zm0 42.9C13 43.1 4.2 34.3 4.2 23.4 4.2 12.5 13 3.7 23.9 3.7c10.9 0 19.7 8.8 19.7 19.7 0 10.9-8.8 19.7-19.7 19.7z" fill="#fff"/><path d="M13.7 13.3v2.9h20.4v-2.9H13.7zm13.1 4.3H13.7v2.9h13.1v-2.9zM21 22h-7.3v2.9H21V22zm-7.3 7.3h17.5v-2.9H13.7v2.9zm0 4.3h11.6v-2.9H13.7v2.9z" fill="#fff"/></g></g></g></svg>