<svg width="64" height="64" viewBox="0 0 64 64" xmlns="http://www.w3.org/2000/svg"><title>Group</title><desc>Created with Sketch.</desc><path d="M31.8.8C14.5.8.5 14.8.5 32.1s14 31.3 31.3 31.3 31.3-14 31.3-31.3S49.1.8 31.8.8zm0 57.7c-14.6 0-26.4-11.8-26.4-26.4 0-14.6 11.8-26.4 26.4-26.4 14.6 0 26.4 11.8 26.4 26.4 0 14.6-11.8 26.4-26.4 26.4zm15.7-36.8c-.5.3-2.1.9-3.6 1.1.9-.5 2.3-2.3 2.7-3.8-.9.6-3 1.5-4 1.5-1.2-1.3-2.8-2.1-4.7-2.1-3.6 0-6.5 3.1-6.5 6.9 0 .5.1 1.1.2 1.5-4.8-.1-10.5-2.7-13.7-7.2-2 3.6-.3 7.7 2 9.2-.8.1-2.2-.1-2.8-.8 0 2.4 1 5.6 5 6.8-.8.4-2.1.3-2.7.2.2 2 2.9 4.7 5.8 4.7-1 1.3-4.6 3.6-8.9 2.9 3 1.9 6.4 3.1 10.1 3.1 10.4 0 18.5-9.1 18.1-20.3v-.2c.8-.6 2-1.9 3-3.5z"/></svg>