<svg width="32" height="32" viewBox="0 0 32 32" xmlns="http://www.w3.org/2000/svg" xmlns:sketch="http://www.bohemiancoding.com/sketch/ns"><title>Group</title><desc>Created with Sketch.</desc><path d="M.9 19.5v12.5h12.5v-2.6h-9.9v-9.9h-2.6zm12.5-18.7h-12.5v12.4h2.6v-9.9h9.9v-2.5zm18.4 12.4v-12.4h-12.4v2.5h9.9v9.9h2.5zm-12.4 18.8h12.4v-12.5h-2.5v9.9h-9.9v2.6zm4-20.9l8.4-8.5-1.8-1.8-8.4 8.5 1.8 1.8zm-12.1-1.7l-8.6-8.6-1.8 1.8 8.5 8.6 1.9-1.8zm-1.7 11.9l-8.7 8.9 1.8 1.8 8.7-8.8-1.8-1.9zm11.8 2l8.6 8.7 1.8-1.8-8.6-8.7-1.8 1.8z" sketch:type="MSShapeGroup"/></svg>