<svg width="64" height="63" viewBox="0 0 64 63" xmlns="http://www.w3.org/2000/svg" xmlns:sketch="http://www.bohemiancoding.com/sketch/ns"><title>Group</title><desc>Created with Sketch.</desc><g transform="translate(-631 -593) translate(632 593)" sketch:type="MSShapeGroup" fill="none"><circle opacity=".25" fill="#000" cx="30.7" cy="32.7" r="28.7"/><path d="M30.8.3c-17.3 0-31.3 14-31.3 31.3s14 31.3 31.3 31.3 31.3-14 31.3-31.3-14-31.3-31.3-31.3zm0 57.6c-14.6 0-26.4-11.8-26.4-26.4 0-14.6 11.8-26.4 26.4-26.4 14.6 0 26.4 11.8 26.4 26.4 0 14.6-11.8 26.4-26.4 26.4zM45.1 46l-28.6-28.6c-.5-.5-1.4-.5-1.9 0s-.5 1.4 0 1.9l28.6 28.6c.5.5 1.4.5 1.9 0s.5-1.4 0-1.9z" id="Shape" fill="#fff"/><g id="Shape" fill="#fff"><path d="M41.6 41.1v-19.4c0-2.4-.5-3.4-2.5-2.2l-11.9 7.2 14.4 14.4zM20.7 26.8h-1.6c-.5 0-1 .4-1 1v9.8c0 .5.4 1 1 1h8.2l11.7 7.3c.5.3.9.4 1.2.5l-19.5-19.6z"/></g><path d="M45.1 46l-28.6-28.6c-.5-.5-1.4-.5-1.9 0s-.5 1.4 0 1.9l28.6 28.6c.5.5 1.4.5 1.9 0s.5-1.4 0-1.9z" fill="#fff"/></g></svg>