<?xml version="1.0" encoding="UTF-8" standalone="no"?>
<svg width="62px" height="62px" viewBox="0 0 62 62" version="1.1" xmlns="http://www.w3.org/2000/svg" xmlns:xlink="http://www.w3.org/1999/xlink" xmlns:sketch="http://www.bohemiancoding.com/sketch/ns">
    <!-- Generator: Sketch 3.2.2 (9983) - http://www.bohemiancoding.com/sketch -->
    <title>Group</title>
    <desc>Created with Sketch.</desc>
    <defs></defs>
    <g id="Page-1" stroke="none" stroke-width="1" fill="none" fill-rule="evenodd" sketch:type="MSPage">
        <g id="pathway-icons-01" sketch:type="MSLayerGroup" fill="#000000">
            <g id="Group" sketch:type="MSShapeGroup">
                <path d="M30.8031746,0 C13.7777778,0 0,13.7777778 0,30.8031746 C0,47.8285714 13.7777778,61.6063492 30.8031746,61.6063492 C47.8285714,61.6063492 61.6063492,47.8285714 61.6063492,30.8031746 C61.5079365,13.7777778 47.7301587,0 30.8031746,0 L30.8031746,0 Z M30.8031746,56.784127 C16.4349206,56.784127 4.82222222,45.1714286 4.82222222,30.8031746 C4.82222222,16.4349206 16.4349206,4.82222222 30.8031746,4.82222222 C45.1714286,4.82222222 56.784127,16.4349206 56.784127,30.8031746 C56.6857143,45.1714286 45.0730159,56.784127 30.8031746,56.784127 L30.8031746,56.784127 Z" id="Shape"></path>
                <path d="M42.6126984,28.6380952 L24.6031746,17.9111111 C22.5365079,16.7301587 21.1587302,17.7142857 21.1587302,20.0761905 L21.1587302,41.7269841 C21.1587302,44.0888889 22.6349206,45.0730159 24.6031746,43.8920635 L42.7111111,33.1650794 C44.7777778,31.7873016 44.6793651,29.8190476 42.6126984,28.6380952 L42.6126984,28.6380952 Z" id="Shape"></path>
            </g>
        </g>
    </g>
</svg>