<?xml version="1.0" encoding="utf-8"?>
<!-- Generator: Adobe Illustrator 17.1.0, SVG Export Plug-In . SVG Version: 6.00 Build 0)  -->
<!DOCTYPE svg PUBLIC "-//W3C//DTD SVG 1.1//EN" "http://www.w3.org/Graphics/SVG/1.1/DTD/svg11.dtd">
<svg version="1.1" id="Layer_1" xmlns="http://www.w3.org/2000/svg" xmlns:xlink="http://www.w3.org/1999/xlink" x="0px" y="0px"
	 viewBox="0 0 32 32" enable-background="new 0 0 32 32" xml:space="preserve">
<g>
	<path fill="#FFFFFF" d="M16,0C7.2,0,0,7.2,0,16s7.2,16,16,16s16-7.2,16-16S24.8,0,16,0z M16,29.5c-7.5,0-13.5-6-13.5-13.5
		S8.5,2.5,16,2.5s13.5,6,13.5,13.5S23.5,29.5,16,29.5z"/>
	<path fill="#FFFFFF" d="M16.4,8c-4.4,0-6.6,3.1-6.6,5.7c0,1.6,0.6,3,1.9,3.5c0.2,0.1,0.4,0,0.5-0.2c0-0.2,0.1-0.6,0.2-0.7
		c0.1-0.2,0-0.3-0.1-0.5c-0.4-0.4-0.6-1-0.6-1.8c0-2.3,1.7-4.4,4.5-4.4c2.5,0,3.8,1.5,3.8,3.5c0,2.6-1.2,4.9-2.9,4.9
		c-1,0-1.7-0.8-1.5-1.8c0.3-1.2,0.8-2.4,0.8-3.3c0-0.8-0.4-1.4-1.2-1.4c-1,0-1.8,1-1.8,2.4c0,0.9,0.3,1.5,0.3,1.5s-1,4.3-1.2,5
		c-0.4,1.5-0.1,3.3,0,3.5c0,0.1,0.2,0.1,0.2,0.1c0.1-0.1,1.3-1.6,1.7-3c0.1-0.4,0.6-2.5,0.6-2.5c0.3,0.6,1.3,1.1,2.3,1.1
		c3,0,5-2.7,5-6.3C22.2,10.5,19.9,8,16.4,8z"/>
</g>
</svg>
