<?xml version="1.0" encoding="utf-8"?>
<!-- Generator: Adobe Illustrator 17.1.0, SVG Export Plug-In . SVG Version: 6.00 Build 0)  -->
<!DOCTYPE svg PUBLIC "-//W3C//DTD SVG 1.1//EN" "http://www.w3.org/Graphics/SVG/1.1/DTD/svg11.dtd">
<svg version="1.1" id="Layer_1" xmlns="http://www.w3.org/2000/svg" xmlns:xlink="http://www.w3.org/1999/xlink" x="0px" y="0px"
	 viewBox="0 0 32 32" enable-background="new 0 0 32 32" xml:space="preserve">
<g>
	<path fill="#FFFFFF" d="M16,0C7.3,0,0.2,7.1,0.2,15.9S7.3,31.8,16,31.8s15.9-7.1,15.9-15.9S24.8,0,16,0z M16,29.2
		c-7.4,0-13.4-6-13.4-13.4S8.6,2.5,16,2.5c7.4,0,13.4,6,13.4,13.4S23.4,29.2,16,29.2z"/>
	<path fill="#FFFFFF" d="M24,10.6c-0.3,0.2-1.1,0.5-1.8,0.6c0.5-0.3,1.2-1.2,1.4-1.9c-0.5,0.3-1.5,0.8-2,0.8l0,0
		C20.9,9.4,20.1,9,19.1,9c-1.8,0-3.3,1.6-3.3,3.5c0,0.3,0.1,0.6,0.1,0.8l0,0c-2.4-0.1-5.3-1.4-6.9-3.6c-1,1.8-0.2,3.9,1,4.7
		c-0.4,0.1-1.1-0.1-1.4-0.4c0,1.2,0.5,2.8,2.5,3.4c-0.4,0.2-1.1,0.2-1.4,0.1c0.1,1,1.5,2.4,2.9,2.4c-0.5,0.7-2.3,1.8-4.5,1.5
		c1.5,1,3.2,1.6,5.1,1.6c5.3,0,9.4-4.6,9.2-10.3l0,0v-0.1v-0.1C22.9,12,23.5,11.4,24,10.6z"/>
</g>
</svg>
