<svg width="63" height="63" viewBox="0 0 63 63" xmlns="http://www.w3.org/2000/svg"><title>Group</title><desc>Created with Sketch.</desc><g transform="translate(-423 -592) translate(423 592)" fill="none"><circle opacity=".25" fill="#000" cx="30.7" cy="31.7" r="28.7"/><path d="M41.2 19l-9.7 9.7-9.7-9.7-2.7 2.8 9.6 9.6-9.6 9.7 2.7 2.8 9.7-9.7 9.7 9.7 2.7-2.8-9.6-9.7 9.6-9.6-2.7-2.8zM31.5.2C14.2.2.2 14.2.2 31.5s14 31.3 31.3 31.3 31.3-14 31.3-31.3S48.8.2 31.5.2zm0 57.6C16.9 57.8 5.1 46 5.1 31.4 5.1 16.8 16.9 5 31.5 5c14.6 0 26.4 11.8 26.4 26.4 0 14.6-11.8 26.4-26.4 26.4z" fill="#fff"/></g></svg>