<svg width="62" height="62" viewBox="0 0 62 62" xmlns="http://www.w3.org/2000/svg"><title>Group</title><desc>Created with Sketch.</desc><g fill="none" fill-rule="evenodd"><g fill="#000"><g><path d="M30.803 0C13.778 0 0 13.778 0 30.803 0 47.83 13.778 61.606 30.803 61.606c17.026 0 30.803-13.777 30.803-30.803C61.508 13.778 47.73 0 30.803 0zm0 56.784c-14.368 0-25.98-11.613-25.98-25.98 0-14.37 11.612-25.982 25.98-25.982s25.98 11.613 25.98 25.98c-.097 14.37-11.71 25.982-25.98 25.982zM42.613 28.638L24.603 17.91c-2.066-1.18-3.444-.196-3.444 2.166v21.65c0 2.363 1.475 3.347 3.443 2.166L42.71 33.165c2.068-1.378 1.97-3.346-.097-4.527z"/></g></g></g></svg>