<?xml version="1.0" encoding="utf-8"?>
<!-- Generator: Adobe Illustrator 17.1.0, SVG Export Plug-In . SVG Version: 6.00 Build 0)  -->
<!DOCTYPE svg PUBLIC "-//W3C//DTD SVG 1.1//EN" "http://www.w3.org/Graphics/SVG/1.1/DTD/svg11.dtd">
<svg version="1.1" id="Layer_1" xmlns="http://www.w3.org/2000/svg" xmlns:xlink="http://www.w3.org/1999/xlink" x="0px" y="0px"
	 viewBox="0 0 32 32" enable-background="new 0 0 32 32" xml:space="preserve">
<g>
	<path fill="#FFFFFF" d="M16,0C7.3,0,0.2,7.1,0.2,15.9S7.3,31.8,16,31.8s15.9-7.1,15.9-15.9S24.7,0,16,0z M16,29.3
		c-7.4,0-13.4-6-13.4-13.4S8.6,2.5,16,2.5s13.4,6,13.4,13.4C29.4,23.2,23.4,29.3,16,29.3z"/>
	<path fill="#FFFFFF" d="M19.8,13.5H17v-2c0-0.6,0.7-0.8,0.9-0.8c0.3,0,1.8,0,1.8,0V7.9h-2c-2.8,0-3.4,2-3.4,3.3v2.2h-2v2.8h2
		c0,3.6,0,7.6,0,7.6H17c0,0,0-4,0-7.6h2.3L19.8,13.5z"/>
</g>
</svg>
