<svg width="63" height="64" viewBox="0 0 63 64" xmlns="http://www.w3.org/2000/svg" xmlns:sketch="http://www.bohemiancoding.com/sketch/ns"><title>Group</title><desc>Created with Sketch.</desc><path d="M31.3.8c-17.3 0-31.3 14-31.3 31.3s14 31.3 31.3 31.3 31.3-14 31.3-31.3-14-31.3-31.3-31.3zm0 57.7c-14.6 0-26.4-11.8-26.4-26.4 0-14.6 11.8-26.4 26.4-26.4 14.6 0 26.4 11.8 26.4 26.4 0 14.6-11.8 26.4-26.4 26.4zm7.5-31.2h-5.4v-4c0-1.2 1.3-1.5 1.8-1.5h3.5v-5.4h-4c-5.5 0-6.7 4-6.7 6.6v4.3h-4v5.5h4v14.9h5.4v-14.9h4.6l.8-5.5z" sketch:type="MSShapeGroup"/></svg>