<svg width="48" height="47" viewBox="0 0 48 47" xmlns="http://www.w3.org/2000/svg"><title>Group</title><desc>Created with Sketch.</desc><g fill="none" fill-rule="evenodd"><g><g><path d="M24 .2C11.1.2.7 10.6.7 23.5S11.1 46.8 24 46.8s23.3-10.4 23.3-23.3C47.2 10.6 36.8.2 24 .2zm0 42.9c-10.9 0-19.7-8.8-19.7-19.7C4.3 12.5 13.1 3.7 24 3.7c10.9 0 19.7 8.8 19.7 19.7 0 10.9-8.9 19.7-19.7 19.7z" id="Shape" fill="#fff"/><path d="M24 43.11c-10.9 0-19.7-8.8-19.7-19.7 0-10.9 8.8-19.7 19.7-19.7 10.9 0 19.7 8.8 19.7 19.7 0 10.9-8.9 19.7-19.7 19.7z" fill-opacity=".25" fill="#000"/><path d="M32.9 21.8l-13.6-8.1c-1.6-.9-2.6-.1-2.6 1.6v16.4c0 1.8 1.1 2.5 2.6 1.6L33 25.2c1.5-.9 1.5-2.4-.1-3.4z" fill="#fff"/></g></g></g></svg>