<svg width="52" height="35" viewBox="0 0 52 35" xmlns="http://www.w3.org/2000/svg"><title>Shape</title><desc>Created with Sketch.</desc><path d="M50.9 26.4l-1.1-9c-.6-4.4-1.1-8.9-1.7-13.5-.3-3-1.6-3.6-3.8-3.3-1.4.2-19 2.7-21.9 3-1.4.2-2.7.6-2.1 4-1.6-.3-3.2-.5-4.9-.8L6 5.4c-1.1-.2-3.3 0-3.3 2.9l-1.1 7.8c-.5 3.2-1 6.5-1.3 9.7-.2 1.1 0 3.3 2.9 3.3 2.4.5 4.9 1 7.3 1.3l9.5 1.4c2.5.3 2.4-1.1 3-2.2v.3c.5 3.5 1.4 3.8 3.8 3.5.6 0 18.6-2.4 22.1-2.9 2-.3 2.1-2.7 2-4.1zm-29.6-4.3c-.3 2.1-.6 4.1-.8 6.2 0 .6-.2.6-.6.5l-8.7-1.3-7.8-1.1c-.5 0-.5-.2-.5-.6l1.4-10 1-7.1c0-.3.2-.5.5-.3l11.4 1.7 3 .5c.2 0 .3.2.3.3l1.1 9v.2c.1.4-.1 1.2-.3 2zm25.9 5.1c-1.4.2-2.9.3-4.3.6l-6.3 1s-4.3.6-6.3 1c-1.6.2-3.2.5-4.6.6-.5 0-.6 0-.6-.5-.3-2.2-.6-4.3-.8-6.5-.3-2.4-.6-4.8-1-7s-.6-4.4-.8-6.7c-.2-.8-.2-1.6-.3-2.2 0-.3.2-.5.3-.5l4.3-.6 6.8-1 6.8-1c1.3-.3 2.5-.5 3.8-.6.5 0 .5 0 .6.5l1 7.1c.3 2.5.6 5.1 1 7.5.3 2.4.6 4.8 1 7 0 .3 0 .5.2.8-.3.3-.5.5-.8.5zM38 9.6c-1-.8-2.2-1-3.3-1-1.1 0-2.1.2-3 .6-1.3.6-2.2 1.6-2.7 3-.2.5-.2 1-.2 1.4 0 .6.5 1.1 1.1 1.3.6.2 1.4-.2 1.7-.8l.5-1.3c.3-.8.8-1.3 1.4-1.3h1c.6 0 1.3.5 1.4 1.3.2.5 0 1-.3 1.4l-.8 1-1.4 1.7c-.3.5-.5 1.1-.5 1.7 0 .8.5 1.4 1.1 1.6 1 .2 1.7-.2 1.9-1.1.2-.8.5-1.3 1.1-1.9.6-.6 1.3-1.3 1.7-1.9 1.4-2.1.9-4.5-.7-5.7zm-2.9 11.5c-1.1 0-1.9 1-1.9 2.1s1 1.9 1.9 1.9c1.1 0 1.9-1 1.9-1.9.1-1.1-.7-2.1-1.9-2.1zm-21.7-9.2c-1 0-1.6.2-2.1.5-.8.5-1.6 1.1-1.7 2.1-.2.6 0 1 .3 1.3.6.5 1.3.3 1.7-.3l.3-.5c.5-.8 1.1-1 2.1-.8 1 .3 1.3 1.4.5 2.2l-1 .8c-.5.3-1 .5-1.3.8-.5.3-.6.8-.8 1.3-.2.6.2 1.3.6 1.4.6.3 1.3 0 1.6-.6.3-.5.6-.8 1.1-1.1.5-.3 1-.5 1.4-1 1.7-1.3 1.7-3.6.2-5.1-.8-.7-1.9-1-2.9-1zm-1.3 9.7c-.8 0-1.4.6-1.4 1.6 0 .8.6 1.6 1.4 1.6.8 0 1.4-.6 1.4-1.6.1-.8-.6-1.6-1.4-1.6z" fill="#231F20"/></svg>