<?xml version="1.0" encoding="UTF-8" standalone="no"?>
<svg width="48px" height="47px" viewBox="0 0 48 47" version="1.1" xmlns="http://www.w3.org/2000/svg" xmlns:xlink="http://www.w3.org/1999/xlink" xmlns:sketch="http://www.bohemiancoding.com/sketch/ns">
    <!-- Generator: Sketch 3.2.2 (9983) - http://www.bohemiancoding.com/sketch -->
    <title>Group</title>
    <desc>Created with Sketch.</desc>
    <defs></defs>
    <g id="Page-1" stroke="none" stroke-width="1" fill="none" fill-rule="evenodd" sketch:type="MSPage">
        <g id="pathway-icons-02" sketch:type="MSLayerGroup" transform="translate(-500.000000, -269.000000)">
            <g id="Group" transform="translate(500.000000, 269.000000)" sketch:type="MSShapeGroup">
                <path d="M23.9,43.1 C13,43.1 4.2,34.3 4.2,23.4 C4.2,12.5 13,3.7 23.9,3.7 C34.8,3.7 43.6,12.5 43.6,23.4 C43.6,34.3 34.8,43.1 23.9,43.1 L23.9,43.1 Z" id="Shape" fill-opacity="0.25" fill="#000000"></path>
                <path d="M23.9,0.2 C11,0.2 0.6,10.6 0.6,23.5 C0.6,36.4 11,46.8 23.9,46.8 C36.8,46.8 47.2,36.4 47.2,23.5 C47.2,10.6 36.8,0.2 23.9,0.2 L23.9,0.2 Z M23.9,43.1 C13,43.1 4.2,34.3 4.2,23.4 C4.2,12.5 13,3.7 23.9,3.7 C34.8,3.7 43.6,12.5 43.6,23.4 C43.6,34.3 34.8,43.1 23.9,43.1 L23.9,43.1 Z" id="Shape-5" fill="#FFFFFF"></path>
                <path d="M13.7,13.3 L13.7,16.2 L34.1,16.2 L34.1,13.3 L13.7,13.3 L13.7,13.3 Z M26.8,17.6 L13.7,17.6 L13.7,20.5 L26.8,20.5 L26.8,17.6 L26.8,17.6 Z M21,22 L13.7,22 L13.7,24.9 L21,24.9 L21,22 L21,22 Z M13.7,29.3 L31.2,29.3 L31.2,26.4 L13.7,26.4 L13.7,29.3 L13.7,29.3 Z M13.7,33.6 L25.3,33.6 L25.3,30.7 L13.7,30.7 L13.7,33.6 L13.7,33.6 Z" id="Shape" fill="#FFFFFF"></path>
            </g>
        </g>
    </g>
</svg>