<svg width="63" height="64" viewBox="0 0 63 64" xmlns="http://www.w3.org/2000/svg" xmlns:sketch="http://www.bohemiancoding.com/sketch/ns"><title>Group</title><desc>Created with Sketch.</desc><path d="M41.2 19.7l-9.7 9.6-9.7-9.6-2.7 2.7 9.6 9.7-9.6 9.7 2.7 2.7 9.7-9.6 9.7 9.6 2.7-2.7-9.6-9.7 9.6-9.7-2.7-2.7zm-9.7-18.9c-17.3 0-31.3 14-31.3 31.3s14 31.3 31.3 31.3 31.3-14 31.3-31.3-14-31.3-31.3-31.3zm0 57.7c-14.6 0-26.4-11.8-26.4-26.4 0-14.6 11.8-26.4 26.4-26.4 14.6 0 26.4 11.8 26.4 26.4 0 14.6-11.8 26.4-26.4 26.4z" sketch:type="MSShapeGroup" fill="#5CB8B3"/></svg>