<?xml version="1.0" encoding="utf-8"?>
<!-- Generator: Adobe Illustrator 17.1.0, SVG Export Plug-In . SVG Version: 6.00 Build 0)  -->
<!DOCTYPE svg PUBLIC "-//W3C//DTD SVG 1.1//EN" "http://www.w3.org/Graphics/SVG/1.1/DTD/svg11.dtd">
<svg version="1.1" id="Layer_1" xmlns="http://www.w3.org/2000/svg" xmlns:xlink="http://www.w3.org/1999/xlink" x="0px" y="0px"
	 viewBox="0 0 42 42" enable-background="new 0 0 42 42" xml:space="preserve">
<circle opacity="0.8" cx="21.1" cy="20.9" r="18.6"/>
<g>
	<path fill="#FFFFFF" d="M21,0C9.4,0,0,9.4,0,21s9.4,21,21,21c11.6,0,21-9.4,21-21S32.7,0,21,0z M21,38.8c-9.8,0-17.8-7.9-17.8-17.8
		S11.2,3.3,21,3.3c9.8,0,17.8,7.9,17.8,17.8S30.8,38.8,21,38.8z"/>
	<path fill="#FFFFFF" d="M31.3,30L12.1,10.8c-0.4-0.4-0.9-0.4-1.3,0c-0.4,0.4-0.4,0.9,0,1.3L30,31.3c0.4,0.4,0.9,0.4,1.3,0
		C31.7,30.9,31.7,30.4,31.3,30z"/>
	<g>
		<path fill="#FFFFFF" d="M28.9,26.7V13.7c0-1.6-0.3-2.3-1.7-1.5l-8,4.8L28.9,26.7z"/>
		<path fill="#FFFFFF" d="M14.9,17.1h-1.1c-0.4,0-0.7,0.3-0.7,0.7v6.6c0,0.4,0.3,0.7,0.7,0.7h5.5l7.9,4.9c0.3,0.2,0.6,0.3,0.8,0.3
			L14.9,17.1z"/>
	</g>
	<path fill="#FFFFFF" d="M31.3,30L12.1,10.8c-0.4-0.4-0.9-0.4-1.3,0c-0.4,0.4-0.4,0.9,0,1.3L30,31.3c0.4,0.4,0.9,0.4,1.3,0
		C31.7,30.9,31.7,30.4,31.3,30z"/>
</g>
</svg>
