<svg width="63" height="63" viewBox="0 0 63 63" xmlns="http://www.w3.org/2000/svg" xmlns:sketch="http://www.bohemiancoding.com/sketch/ns"><title>Group</title><desc>Created with Sketch.</desc><g transform="translate(-50 -592) translate(50 592)" sketch:type="MSShapeGroup" fill="none"><circle opacity=".25" fill="#000" cx="31.7" cy="31.7" r="28.7"/><path d="M31.3.3c-17.3 0-31.3 14-31.3 31.3s14 31.3 31.3 31.3 31.3-14 31.3-31.3-14-31.3-31.3-31.3zm0 57.7c-14.5 0-26.3-11.8-26.3-26.4 0-14.6 11.8-26.4 26.4-26.4 14.6 0 26.4 11.8 26.4 26.4-.1 14.6-11.9 26.4-26.5 26.4zm3-40.1l-13.7 13.7 13.7 13.7 3.9-3.9-9.8-9.8 9.8-9.8-3.9-3.9z" fill="#fff"/></g></svg>