<svg width="64" height="64" viewBox="0 0 64 64" xmlns="http://www.w3.org/2000/svg" xmlns:sketch="http://www.bohemiancoding.com/sketch/ns"><title>Group</title><desc>Created with Sketch.</desc><path d="M32.2.8c-17.3 0-31.3 14-31.3 31.3s14 31.3 31.3 31.3 31.3-14 31.3-31.3-14.1-31.3-31.3-31.3zm0 57.7c-14.6 0-26.4-11.8-26.4-26.4 0-14.6 11.8-26.4 26.4-26.4 14.6 0 26.4 11.8 26.4 26.4 0 14.6-11.9 26.4-26.4 26.4zm2.7-41.1c1.1-.6 1.5-1 1.5-1h-10.2c-2 0-7.7 2.3-7.7 7.7s5.9 6.6 8 6.5c-1.2 1.5-.2 2.8.5 3.5.6.7.5.9-.3.9s-10.2.1-10.2 6.9c0 6.8 12.6 7.3 16.7 3.6 4.1-3.6 3.2-8.7 0-10.9-3.2-2.3-4.4-3.3-2.3-5.1 2-1.8 3.7-3.3 3.7-6.6l-2.8-5.1s2 .2 3.1-.4zm-1.6 24.1c0 2.9-2.5 4.3-6.7 4.3s-6.5-2.1-6.5-5.2 3.1-4.7 8.8-4.7c1.6 1.3 4.4 2.7 4.4 5.6zm-6.1-12.2c-5.1 0-7.4-11.8-1.4-11.8 4.6-.2 8.1 11.8 1.4 11.8zm16.8-8.9v-3.8h-2v3.8h-3.9v2h3.9v3.9h2v-3.9h3.8v-2h-3.8z" sketch:type="MSShapeGroup"/></svg>