<?xml version="1.0" encoding="UTF-8" standalone="no"?>
<svg width="63px" height="63px" viewBox="0 0 63 63" version="1.1" xmlns="http://www.w3.org/2000/svg" xmlns:xlink="http://www.w3.org/1999/xlink" xmlns:sketch="http://www.bohemiancoding.com/sketch/ns">
    <!-- Generator: Sketch 3.0.2 (7799) - http://www.bohemiancoding.com/sketch -->
    <title>Group</title>
    <description>Created with Sketch.</description>
    <defs></defs>
    <g id="Page-1" stroke="none" stroke-width="1" fill="none" fill-rule="evenodd" sketch:type="MSPage">
        <g id="pathway-icons-02" sketch:type="MSLayerGroup" transform="translate(-1079.000000, -230.000000)" fill="#FFFFFF">
            <g id="Group" transform="translate(1079.000000, 230.000000)" sketch:type="MSShapeGroup">
                <path d="M31.6,0 C14.3,0 0.3,14 0.3,31.3 C0.3,48.6 14.3,62.6 31.6,62.6 C48.9,62.6 62.9,48.6 62.9,31.3 C62.9,14 48.9,0 31.6,0 L31.6,0 Z M31.6,57.7 C17,57.7 5.2,45.9 5.2,31.3 C5.2,16.7 17,4.9 31.6,4.9 C46.2,4.9 58,16.7 58,31.3 C58,45.8 46.2,57.7 31.6,57.7 L31.6,57.7 Z" id="Shape"></path>
                <path d="M23.8,41 L43.4,31.3 L23.8,21.5 L23.8,41 Z" id="Shape"></path>
            </g>
        </g>
    </g>
</svg>